<?xml version="1.0" standalone="no"?>
<!DOCTYPE svg PUBLIC "-//W3C//DTD SVG 20010904//EN"
 "http://www.w3.org/TR/2001/REC-SVG-20010904/DTD/svg10.dtd">
<svg version="1.0" xmlns="http://www.w3.org/2000/svg"
 width="1920.000000pt" height="1080.000000pt" viewBox="0 0 1920.000000 1080.000000"
 preserveAspectRatio="xMidYMid meet">
<metadata>
Created by potrace 1.16, written by Peter Selinger 2001-2019
</metadata>
<g transform="translate(0.000000,1080.000000) scale(0.100000,-0.100000)"
fill="#000000" stroke="none">
<path d="M0 9345 l0 -1455 40 0 c22 0 40 -4 40 -10 0 -5 18 -10 40 -10 22 0
40 5 40 11 0 21 20 -3 28 -34 9 -33 26 -39 28 -9 1 9 2 23 3 29 0 7 24 31 52
53 40 31 54 38 68 30 23 -12 61 25 61 58 0 19 6 22 40 22 29 0 40 4 40 15 0 9
9 15 24 15 35 0 56 10 56 26 0 8 5 14 10 14 6 0 10 -6 10 -13 0 -27 26 -67 44
-67 14 0 17 6 14 28 -4 26 -3 27 39 23 29 -2 43 -8 43 -17 0 -9 8 -14 17 -12
13 2 24 -10 37 -39 12 -27 27 -44 42 -47 13 -4 24 -13 24 -21 0 -13 19 -20 43
-16 22 4 77 -25 77 -40 0 -9 9 -19 21 -22 12 -3 18 -10 14 -16 -3 -6 -3 -16 1
-23 5 -7 11 -5 21 8 10 14 16 16 21 7 5 -7 25 -19 47 -26 30 -11 41 -21 50
-48 14 -42 38 -44 45 -4 5 28 7 29 50 26 25 -1 47 -7 48 -12 6 -14 100 -11
105 4 4 10 7 10 18 0 19 -18 69 -17 69 2 0 8 7 15 15 15 8 0 15 -7 15 -15 0
-11 12 -15 50 -15 45 0 50 -2 50 -23 0 -12 9 -28 20 -35 12 -7 25 -24 30 -37
8 -22 16 -25 60 -25 54 0 55 -1 50 -73 -2 -26 0 -28 19 -17 12 6 21 15 21 20
0 6 9 10 19 10 11 0 21 6 24 13 3 8 12 5 29 -10 13 -13 30 -23 36 -23 7 0 12
-9 12 -20 0 -11 5 -20 10 -20 24 0 6 42 -22 53 -36 13 -17 27 37 27 31 0 55 4
55 10 0 22 38 52 57 46 14 -5 31 5 61 36 23 23 42 48 42 55 0 7 4 13 9 13 5 0
24 14 42 31 31 29 38 31 85 26 36 -4 58 -1 71 8 10 8 25 15 34 15 9 0 29 7 45
14 15 8 31 13 35 10 5 -3 25 6 46 20 28 18 58 26 116 31 80 8 107 25 37 25
-29 0 -40 4 -40 15 0 11 11 15 40 15 22 0 40 -4 40 -9 0 -12 58 -71 70 -71 6
0 10 5 10 11 0 8 43 10 139 8 77 -2 143 -1 146 3 4 4 30 4 59 1 53 -6 136 -48
136 -70 0 -7 18 -14 43 -16 l42 -4 -42 -1 c-31 -1 -43 -6 -43 -17 0 -11 11
-15 40 -15 29 0 40 -4 40 -15 0 -8 6 -15 14 -15 8 0 17 -8 21 -17 6 -17 7 -17
19 0 21 28 42 20 61 -23 10 -22 24 -45 32 -51 10 -9 13 -5 13 22 l0 34 23 -25
c13 -14 26 -33 30 -42 3 -10 11 -18 17 -18 5 0 10 -8 10 -18 0 -16 55 -93 72
-100 5 -2 8 -18 8 -37 0 -34 35 -125 49 -125 4 0 14 11 21 25 8 14 25 28 39
31 43 9 52 14 48 21 -3 5 15 6 39 4 39 -3 44 -6 44 -27 0 -23 2 -24 85 -24 52
0 85 -4 85 -10 0 -6 9 -20 20 -32 17 -19 20 -19 26 -5 8 21 24 22 24 2 0 -25
24 -17 42 15 22 38 35 38 43 -1 4 -19 16 -34 30 -39 13 -5 28 -17 34 -27 6
-10 11 -12 11 -5 0 8 22 12 76 12 78 0 90 -5 113 -48 10 -18 15 -20 31 -12 15
8 20 8 20 -1 0 -12 64 -8 108 6 19 6 22 4 22 -18 0 -14 -5 -27 -12 -29 -26 -9
5 -30 36 -24 17 3 45 -1 61 -8 l30 -14 -30 -13 -30 -13 28 -4 c21 -3 27 -9 27
-28 0 -21 4 -24 40 -24 l40 0 0 -55 c0 -42 -3 -55 -15 -55 -12 0 -15 -16 -15
-80 0 -78 -1 -80 -24 -80 -21 0 -25 5 -29 38 l-4 37 0 -40 c0 -45 -22 -115
-37 -115 -5 0 -18 7 -28 17 -17 15 -18 14 -17 -18 0 -19 3 -29 5 -23 5 13 84
-2 84 -16 0 -5 -16 -12 -36 -17 -30 -7 -37 -13 -40 -36 -3 -30 25 -52 57 -44
12 3 19 0 19 -9 0 -17 41 -19 59 -1 10 9 15 9 18 0 3 -8 21 -10 56 -7 29 2 46
2 39 -2 -23 -11 -12 -24 28 -30 24 -4 40 -12 40 -20 0 -9 12 -14 34 -14 19 0
38 -4 41 -10 9 -14 85 -13 85 1 0 8 20 9 67 4 37 -4 115 -8 173 -10 58 -2 117
-9 133 -16 21 -9 30 -10 39 -1 8 8 52 12 126 12 104 0 115 2 131 21 14 17 22
20 37 12 10 -5 46 -16 79 -23 33 -7 64 -17 70 -22 17 -15 25 -8 19 17 -6 24
-4 25 40 25 34 0 46 -4 46 -15 0 -9 9 -15 25 -15 23 0 25 4 25 41 0 42 -36
122 -51 113 -5 -2 -15 9 -24 26 -9 18 -23 30 -35 30 -11 0 -20 7 -20 15 0 8
-7 15 -15 15 -11 0 -15 11 -15 40 0 36 -2 40 -25 40 -22 0 -25 -4 -25 -40 l0
-40 -40 0 c-29 0 -40 4 -40 15 0 8 -9 15 -20 15 -14 0 -20 7 -20 21 0 16 4 19
20 14 11 -4 20 -2 20 4 0 6 9 11 20 11 21 0 22 6 26 130 l1 45 50 1 c28 1 64
9 80 17 26 14 27 16 8 23 -31 12 -35 23 -35 107 l0 77 31 0 c19 0 37 7 45 18
12 16 13 15 14 -5 0 -24 7 -27 34 -17 11 4 16 19 16 45 0 28 4 39 15 39 11 0
15 11 15 40 0 22 5 40 11 40 6 0 3 7 -5 16 -21 20 -21 21 12 38 29 15 57 82
46 111 -4 9 -1 28 7 41 10 20 11 27 1 33 -17 10 2 26 42 35 29 7 88 43 94 57
9 20 40 48 47 41 5 -4 5 1 2 11 -4 9 -2 17 5 17 6 0 17 -8 24 -17 13 -17 13
-17 13 2 0 38 -35 176 -42 169 -4 -4 -7 0 -7 9 0 10 8 17 20 17 11 0 20 -7 20
-15 0 -8 4 -23 9 -33 26 -47 58 -246 71 -437 5 -82 12 -150 15 -153 2 -3 16 3
29 12 14 8 32 13 40 10 8 -3 25 4 37 15 29 27 37 26 49 -4 7 -17 5 -32 -5 -52
-8 -15 -15 -33 -15 -40 0 -6 -10 -19 -22 -28 -16 -12 -19 -19 -10 -22 21 -8
13 -32 -17 -47 -27 -14 -41 -12 -41 5 0 5 6 6 14 3 9 -3 15 4 18 20 3 16 0 27
-9 30 -22 9 -23 8 -23 -14 0 -25 -17 -26 -24 -2 -3 9 -3 -5 0 -33 8 -71 34
-127 56 -122 24 7 23 1 -6 -30 -22 -23 -25 -35 -22 -88 1 -35 11 -78 22 -100
25 -53 61 -69 130 -60 90 11 141 72 147 175 4 60 18 80 41 57 12 -12 14 -28
10 -71 -4 -43 -2 -63 10 -81 9 -13 16 -35 16 -49 0 -14 4 -27 9 -30 4 -3 11
-22 14 -43 3 -21 16 -72 28 -113 11 -41 21 -83 21 -93 -1 -10 7 -33 17 -50 19
-35 54 -177 49 -201 -2 -8 1 -14 5 -13 11 3 33 -39 42 -81 4 -18 13 -45 21
-60 8 -15 14 -34 14 -43 0 -9 9 -24 19 -33 11 -10 22 -29 26 -44 3 -14 15 -37
25 -51 10 -14 23 -46 30 -71 6 -25 16 -53 21 -62 5 -10 9 -36 9 -59 0 -31 -3
-40 -14 -36 -13 5 -116 -90 -116 -106 0 -5 -15 -22 -34 -40 -18 -18 -41 -44
-51 -59 -10 -16 -24 -28 -31 -28 -8 0 -14 -4 -14 -10 0 -5 5 -10 10 -10 20 0
9 -30 -25 -66 -19 -20 -35 -43 -35 -52 0 -10 -7 -13 -25 -10 -32 7 -43 -9 -19
-27 22 -17 11 -19 -17 -4 -17 9 -18 13 -8 25 10 13 10 17 -2 25 -10 6 -11 11
-3 17 6 4 13 19 16 34 5 29 3 29 -43 -3 -14 -10 -48 -26 -75 -37 -41 -15 -217
-138 -272 -190 -8 -7 -30 -25 -50 -40 -20 -15 -53 -44 -74 -64 -22 -21 -43
-38 -47 -38 -5 0 -30 -20 -55 -45 -26 -25 -53 -45 -59 -45 -7 0 -18 -9 -25
-20 -7 -11 -19 -20 -27 -20 -8 0 -18 -6 -22 -12 -10 -17 -69 -58 -82 -58 -6 0
-8 7 -5 15 4 8 12 15 20 15 7 0 24 9 36 21 13 11 47 43 77 70 29 27 57 49 62
49 5 0 19 11 31 25 12 14 28 25 35 25 7 0 13 4 13 9 0 9 92 85 284 236 38 29
96 68 130 86 80 42 117 69 111 79 -9 15 -253 -48 -350 -90 -22 -10 -56 -23
-75 -30 -19 -7 -44 -16 -55 -21 -11 -4 -42 -15 -70 -24 -47 -15 -122 -54 -155
-80 -8 -6 -49 -24 -90 -40 -41 -16 -79 -32 -85 -36 -13 -9 -83 -49 -117 -66
-15 -8 -30 -18 -33 -24 -4 -5 -14 -9 -23 -9 -10 0 -24 -9 -32 -20 -8 -11 -20
-20 -26 -20 -7 0 -15 -7 -18 -16 -3 -8 -10 -13 -16 -9 -5 3 -19 -6 -32 -20
-12 -14 -30 -25 -40 -25 -10 0 -18 -4 -18 -10 0 -5 -12 -16 -27 -25 -16 -9
-40 -23 -54 -33 -14 -9 -40 -26 -57 -38 -18 -11 -30 -23 -27 -26 3 -3 -8 -11
-25 -18 -17 -7 -39 -23 -49 -36 -11 -13 -22 -24 -26 -24 -9 0 -139 -110 -143
-121 -2 -5 -9 -9 -16 -9 -6 0 -19 -8 -27 -17 -9 -10 -38 -34 -63 -53 -26 -19
-65 -50 -86 -67 -20 -18 -42 -33 -47 -33 -5 0 -20 -11 -33 -25 -13 -14 -29
-25 -36 -25 -6 0 -39 -13 -72 -30 -33 -16 -89 -34 -124 -40 -35 -5 -70 -11
-78 -12 -8 -2 -15 2 -15 7 0 6 10 10 23 10 12 -1 22 2 22 6 0 3 18 14 40 24
22 10 40 22 40 27 0 4 11 8 24 8 13 0 29 7 36 15 7 8 23 15 37 15 13 0 26 6
29 14 3 8 18 18 34 21 16 3 31 13 34 22 4 9 9 13 13 10 3 -4 17 3 31 13 13 11
30 20 38 20 7 0 25 14 41 30 15 16 34 30 40 30 7 0 13 5 13 10 0 6 7 10 15 10
9 0 18 7 22 15 3 9 19 23 34 31 16 8 41 28 56 44 14 16 33 32 42 35 9 3 29 21
45 41 26 33 27 37 13 52 -15 14 -17 14 -23 -1 -5 -13 -10 -15 -19 -7 -10 9
-20 4 -42 -17 -18 -19 -36 -27 -50 -25 -13 2 -23 -2 -23 -8 0 -8 -9 -10 -24
-6 -13 3 -26 1 -28 -4 -2 -6 -38 -22 -81 -38 -43 -15 -77 -30 -75 -33 5 -10
-21 -37 -42 -42 -17 -4 -18 -2 -9 16 6 12 -1 7 -16 -10 -30 -37 -41 -40 -65
-18 -26 23 -54 -2 -52 -49 1 -38 -12 -49 -21 -16 -3 11 -10 20 -16 20 -17 0
-13 -26 6 -46 16 -16 15 -18 -11 -40 -17 -15 -40 -24 -62 -24 -28 0 -34 -4
-34 -22 -1 -17 -5 -12 -15 15 -7 21 -15 41 -18 43 -2 3 -35 6 -73 7 -38 2 -75
6 -82 11 -7 4 -19 2 -27 -4 -10 -8 -15 -9 -15 -2 0 6 -6 9 -14 6 -8 -3 -17 -1
-21 5 -11 18 -28 12 -22 -8 4 -15 -2 -20 -34 -25 -22 -4 -39 -12 -39 -19 0
-17 21 -43 40 -50 14 -5 -55 -12 -92 -9 -9 1 -22 -5 -28 -13 -7 -8 -17 -15
-22 -15 -5 0 -16 -6 -23 -14 -13 -13 -65 -114 -65 -126 0 -10 59 -10 65 0 6
10 82 1 109 -12 17 -10 17 -12 -9 -34 -16 -13 -40 -24 -54 -25 -70 -2 -104
-11 -125 -32 -10 -9 -21 -17 -26 -17 -14 0 -22 57 -11 77 5 10 13 35 16 56 3
20 10 37 14 37 5 0 11 16 14 35 3 19 15 47 26 61 12 15 18 31 15 36 -8 13 -64
-32 -97 -78 -95 -134 -149 -220 -186 -299 -23 -49 -48 -96 -56 -105 -7 -8 -17
-28 -21 -45 -13 -58 -76 -177 -113 -213 -84 -83 -156 -200 -170 -274 -6 -35
-6 -80 1 -133 14 -113 1 -153 -90 -263 -145 -176 -183 -228 -217 -298 -19 -38
-35 -73 -35 -77 0 -4 -21 -51 -46 -105 -138 -289 -169 -366 -218 -537 -15 -49
-31 -106 -37 -126 -9 -29 -8 -42 5 -67 22 -42 20 -100 -5 -157 -19 -43 -19
-48 -5 -64 9 -10 16 -24 16 -32 0 -8 5 -20 11 -26 14 -14 -11 -64 -57 -116
-36 -40 -38 -45 -26 -65 13 -19 33 -6 75 49 21 27 47 49 57 49 22 0 70 -61 70
-89 0 -11 -12 -32 -27 -48 -16 -16 -41 -46 -58 -68 -16 -21 -63 -82 -103 -134
-41 -53 -79 -97 -86 -99 -19 -4 -54 30 -61 58 -4 18 5 43 35 92 41 68 48 92
30 103 -21 13 -50 -8 -81 -58 -17 -29 -34 -54 -38 -57 -10 -8 -39 -71 -66
-143 -14 -37 -40 -95 -58 -129 -17 -33 -40 -75 -49 -93 -12 -23 -19 -68 -23
-146 -3 -61 -9 -117 -14 -123 -5 -6 -14 -28 -20 -48 -10 -31 -43 -99 -86 -180
-5 -10 -13 -18 -17 -18 -5 0 -8 -5 -8 -11 0 -6 -23 -43 -51 -83 -28 -40 -54
-89 -59 -109 l-8 -37 1315 0 1315 0 -6 42 c-3 24 -8 72 -11 108 -3 36 -13 98
-22 138 -16 73 -16 74 12 185 33 131 57 192 90 227 13 14 31 41 39 61 19 46
28 53 103 78 102 34 99 37 107 -81 4 -57 9 -121 11 -143 30 -317 34 -381 28
-492 l-6 -123 1684 2 1684 3 3 23 c2 13 10 26 18 29 8 3 14 10 14 15 0 17 48
57 87 73 44 19 91 19 133 2 32 -14 31 -14 -41 -21 -40 -3 -76 -12 -80 -18 -4
-6 -16 -8 -27 -6 -15 4 -27 -3 -44 -24 -13 -17 -23 -35 -22 -39 1 -5 2 -16 3
-24 1 -13 89 -15 726 -15 705 0 725 1 725 19 0 15 10 20 43 25 64 10 128 11
164 4 24 -6 37 -3 49 10 9 9 28 18 41 20 13 1 48 14 78 27 30 14 61 25 70 25
9 0 29 7 45 15 15 8 61 17 102 19 209 14 296 29 305 54 10 25 -121 132 -162
132 -8 0 -15 7 -15 15 0 10 -10 15 -34 15 -19 0 -41 7 -50 15 -8 8 -22 12 -30
9 -9 -4 -16 -1 -16 6 0 8 -8 10 -23 6 -13 -3 -47 -2 -75 3 -40 6 -55 5 -64 -6
-8 -10 -14 -11 -22 -3 -13 13 -46 13 -46 -1 0 -8 -4 -8 -14 0 -7 6 -27 11 -42
11 -16 -1 -74 8 -129 20 -55 11 -114 18 -131 15 -17 -3 -43 -1 -58 5 -16 6
-26 6 -26 0 0 -15 -78 15 -92 35 -5 6 -8 5 -8 -3 0 -16 -91 -7 -102 11 -6 8
-10 5 -14 -11 -7 -25 -35 -29 -58 -7 -8 8 -19 15 -25 15 -6 0 -13 10 -15 23
-3 12 -7 31 -9 42 -3 11 -5 4 -6 -15 -2 -66 -10 -80 -42 -76 -17 2 -29 -1 -29
-8 0 -6 -5 -4 -10 4 -5 8 -10 38 -10 65 0 53 -12 86 -24 66 -4 -6 -16 -11 -27
-11 -11 0 -18 -4 -15 -9 3 -5 -14 -26 -39 -46 -24 -21 -42 -42 -39 -47 3 -5 0
-7 -8 -6 -7 2 -12 -4 -10 -14 3 -19 -21 -27 -79 -25 -24 1 -46 -7 -65 -22 -26
-20 -29 -21 -32 -6 -3 15 -6 14 -15 -5 -12 -23 -37 -39 -37 -23 0 22 43 74 86
103 26 18 119 69 208 113 122 60 177 81 226 89 80 11 242 3 420 -22 74 -10
182 -22 240 -25 58 -4 148 -13 200 -21 195 -30 171 -31 236 17 l58 43 -28 7
c-38 11 -56 28 -56 54 0 12 -7 28 -15 35 -8 6 -13 17 -12 22 1 6 -4 13 -10 15
-7 3 -13 0 -13 -6 0 -6 -4 -11 -10 -11 -5 0 -10 7 -10 16 0 9 -13 43 -30 76
-16 32 -30 65 -30 73 0 18 -60 21 -77 4 -7 -7 -15 -2 -26 15 -9 14 -34 42 -55
63 -45 45 -92 126 -92 159 0 12 -4 26 -10 29 -5 3 -10 19 -10 35 0 49 -16 78
-46 82 -15 2 -32 12 -38 22 -18 32 -60 65 -81 66 -12 0 -26 5 -33 12 -7 7 -22
13 -35 13 -33 0 -33 37 -2 91 27 46 71 74 115 74 12 0 33 14 47 30 24 29 53
40 53 20 0 -16 19 -12 51 11 27 19 40 65 23 82 -4 3 -33 -12 -65 -33 -64 -44
-79 -48 -80 -22 0 9 -3 38 -5 63 -6 55 -6 56 110 134 92 62 116 66 116 16 0
-34 -38 -68 -65 -57 -25 9 -85 -33 -85 -60 0 -31 6 -30 60 6 44 29 74 37 83
22 11 -16 16 -115 8 -131 -5 -9 -41 -38 -80 -65 l-70 -49 18 -26 c10 -14 25
-44 34 -66 l16 -40 0 65 1 65 60 38 c33 20 62 37 65 37 4 0 5 -95 4 -211 l-1
-211 48 -37 c27 -20 51 -46 53 -56 9 -48 141 -213 302 -380 96 -98 132 -144
199 -255 110 -182 160 -250 250 -345 42 -44 96 -101 120 -127 l43 -48 212 0
213 0 7 32 c3 18 17 65 30 103 13 39 30 99 38 135 23 102 104 317 155 410 60
112 92 178 92 189 0 19 40 101 49 101 18 0 151 -147 151 -168 0 -15 74 -86
124 -117 35 -22 57 -47 84 -95 20 -36 64 -108 98 -160 125 -193 176 -290 203
-387 l12 -43 833 0 833 0 -9 53 c-16 85 -15 90 13 104 15 7 100 25 190 40 159
25 199 40 199 70 0 21 -60 265 -75 303 -38 97 -95 289 -115 385 -27 126 -44
192 -52 200 -3 3 -11 -9 -18 -29 -26 -81 -114 -165 -194 -187 -121 -34 -186
15 -186 137 0 38 5 65 13 71 20 16 125 52 131 46 3 -4 6 -19 6 -35 0 -37 16
-68 35 -68 27 0 55 38 55 75 0 40 -17 54 -98 80 -75 24 -108 55 -122 116 -25
102 13 218 93 283 24 20 48 36 53 36 5 0 22 11 38 25 16 14 33 25 37 25 5 0 6
7 3 15 -4 10 -13 13 -25 10 -16 -5 -25 5 -50 62 -17 37 -35 76 -40 85 -12 24
-12 71 1 63 12 -8 13 35 1 53 -6 10 -10 8 -14 -8 -3 -12 -10 -19 -15 -16 -12
7 -21 65 -11 72 4 2 5 17 3 31 -7 35 -14 43 -14 15 0 -12 -5 -22 -11 -22 -8 0
-9 15 -4 47 6 42 3 56 -31 125 -25 50 -43 77 -51 74 -7 -3 -13 -1 -13 4 0 6
-8 18 -17 28 -42 44 -93 168 -93 226 0 16 3 17 12 8 18 -18 28 -14 28 11 0 30
-24 64 -34 49 -4 -7 -12 -12 -19 -12 -6 0 -2 6 8 14 19 14 19 15 2 50 -9 20
-17 42 -17 48 0 17 -53 118 -62 118 -4 0 -8 9 -8 21 0 12 -8 23 -20 26 -11 3
-26 17 -33 32 -8 14 -48 94 -90 176 -42 83 -101 188 -132 235 -30 46 -55 96
-55 110 0 31 -46 159 -93 260 -41 89 -107 244 -107 254 0 3 -11 23 -23 44 -13
20 -36 75 -52 121 -17 51 -40 98 -59 120 -30 34 -58 83 -128 226 -46 93 -128
210 -128 182 0 -12 45 -94 92 -166 26 -41 48 -82 48 -92 0 -25 28 -88 50 -111
23 -25 42 -76 31 -82 -4 -3 -14 6 -21 19 -7 14 -17 25 -22 25 -4 0 -8 5 -8 11
0 7 -13 25 -30 41 -16 15 -30 32 -31 36 0 4 -14 18 -31 32 -21 16 -33 20 -36
12 -2 -7 -10 -12 -18 -12 -8 0 -14 -6 -15 -12 0 -7 -5 1 -11 17 -10 27 -73
114 -114 157 -9 9 -22 14 -29 12 -8 -3 -19 4 -25 16 -7 13 -17 19 -27 16 -12
-5 -14 -1 -10 14 3 11 0 20 -6 20 -7 0 -5 5 3 10 15 9 11 12 -20 14 -8 1 -16
10 -16 21 -1 11 -2 25 -3 31 -1 6 -8 11 -15 11 -12 0 -13 -5 -5 -19 7 -14 7
-24 -2 -34 -15 -18 -35 -2 -23 18 5 7 8 22 9 33 0 13 6 19 18 17 9 -2 17 2 17
7 0 5 -14 9 -31 9 -27 -1 -30 -4 -26 -25 3 -18 0 -23 -15 -23 -13 0 -17 4 -11
13 10 16 10 77 -1 77 -4 0 -6 7 -2 15 3 8 1 15 -5 15 -6 0 -9 -10 -7 -22 2
-15 -2 -23 -12 -23 -10 0 -14 8 -12 24 3 16 -1 22 -10 19 -7 -3 -13 -15 -13
-28 0 -13 -5 -25 -12 -27 -8 -3 -11 15 -8 62 2 46 -1 65 -9 62 -6 -2 -11 -12
-11 -22 0 -10 -6 -20 -13 -22 -9 -4 -11 7 -9 36 3 36 1 41 -17 41 -12 0 -16
-3 -10 -8 6 -4 11 -33 10 -65 0 -56 -1 -58 -23 -54 -18 3 -23 1 -19 -10 3 -8
6 -25 6 -38 0 -16 5 -22 18 -21 10 0 17 -6 17 -16 0 -9 4 -20 8 -24 4 -4 7 -2
7 5 0 7 5 9 10 6 5 -3 10 -17 10 -31 0 -21 4 -24 20 -19 17 5 20 2 20 -21 0
-21 3 -24 14 -15 11 9 15 7 20 -13 4 -18 11 -23 25 -19 16 4 18 0 17 -25 -2
-39 -16 -54 -16 -18 0 25 -3 27 -24 22 -20 -5 -23 -3 -19 14 3 11 0 20 -6 20
-6 0 -11 -12 -11 -26 0 -14 -4 -23 -10 -19 -5 3 -7 12 -3 20 3 10 -2 15 -16
15 -16 0 -21 6 -21 26 0 15 -4 23 -11 18 -6 -3 -9 -15 -6 -25 3 -11 1 -19 -3
-19 -5 0 -10 10 -12 23 -2 16 -9 21 -24 19 -18 -2 -20 2 -16 33 3 22 0 35 -7
35 -7 0 -11 -7 -9 -16 2 -10 -3 -19 -9 -21 -8 -3 -13 4 -13 15 0 17 -5 19 -47
14 -36 -4 -49 -1 -58 12 -7 9 -17 16 -21 15 -26 -4 -35 2 -29 21 5 15 3 18 -9
14 -9 -3 -16 -10 -16 -16 0 -19 21 -48 35 -48 8 0 15 -4 15 -10 0 -5 7 -10 15
-10 8 0 15 -4 15 -10 0 -5 -35 8 -77 30 -43 22 -102 48 -132 58 -30 11 -50 22
-44 25 5 3 22 -1 37 -9 16 -7 34 -14 42 -14 7 0 29 -9 48 -21 l36 -21 0 21 c0
14 -6 21 -20 21 -13 0 -20 7 -20 20 0 23 -10 26 -28 8 -10 -10 -14 -8 -19 11
-6 23 -7 23 -20 6 -12 -17 -13 -17 -13 -2 0 9 -4 17 -9 17 -5 0 -11 6 -14 13
-2 6 -3 4 -2 -6 4 -25 -22 -21 -29 5 -5 22 -6 22 -21 3 -14 -20 -15 -20 -21 3
-6 22 -31 25 -26 3 4 -20 -16 -12 -23 9 -7 21 -27 29 -23 9 2 -6 -3 -14 -10
-16 -6 -3 -12 3 -12 12 0 12 -4 14 -19 5 -27 -14 -31 -13 -31 11 0 18 -2 19
-15 9 -8 -7 -12 -16 -9 -21 3 -5 0 -9 -5 -9 -6 0 -11 5 -11 11 0 6 -9 9 -20 6
-11 -3 -23 -1 -26 4 -3 6 -15 9 -27 7 -16 -2 -22 2 -21 15 1 9 -4 17 -12 17
-8 0 -14 -9 -14 -20 0 -18 -3 -19 -20 -8 -12 8 -18 19 -14 30 3 10 1 18 -5 18
-6 0 -11 -11 -11 -25 0 -14 -4 -25 -10 -25 -5 0 -10 7 -10 15 0 18 -12 19 -27
4 -8 -8 -14 -5 -23 11 -9 17 -14 19 -25 10 -16 -13 -36 -5 -34 13 3 28 -2 60
-8 53 -4 -4 -6 -23 -5 -43 2 -30 1 -34 -11 -24 -8 6 -17 29 -21 51 -6 39 -18
51 -32 29 -3 -6 -2 -15 4 -21 12 -12 5 -38 -10 -38 -5 0 -6 9 -3 20 4 13 1 22
-10 26 -12 5 -13 9 -4 20 18 22 1 29 -21 9 -20 -18 -20 -18 -18 6 2 17 -2 24
-14 23 -14 -1 -15 2 -5 19 9 15 9 21 0 24 -7 2 -9 11 -6 19 7 19 -10 18 -52
-6 -37 -21 -49 -12 -15 11 14 10 18 21 14 37 -7 23 -26 31 -23 10 3 -24 -1
-38 -11 -38 -5 0 -10 6 -10 13 0 7 -7 22 -15 33 -15 18 -15 18 -13 0 5 -32
-16 -28 -32 6 -14 33 -14 33 -20 8 l-6 -25 -14 25 c-8 14 -13 28 -12 33 1 4
-2 7 -8 7 -5 0 -10 -10 -10 -22 0 -22 -1 -21 -19 6 -18 27 -19 27 -26 7 -3
-11 -11 -21 -16 -21 -5 0 -8 3 -7 8 4 11 -28 53 -35 46 -3 -3 -3 -12 0 -20 3
-8 0 -14 -6 -14 -6 0 -11 7 -11 15 0 8 -4 15 -10 15 -5 0 -10 7 -10 16 0 10
-6 14 -15 10 -8 -3 -19 3 -25 12 -8 12 -13 14 -16 5 -9 -22 -33 -14 -40 12 -5
19 -11 24 -24 20 -10 -3 -21 -1 -25 5 -3 5 -17 10 -31 10 -13 0 -24 5 -24 10
0 6 -4 10 -10 10 -5 0 -7 -6 -4 -14 3 -8 0 -17 -6 -21 -7 -4 -16 5 -23 24 -12
32 -31 44 -21 14 4 -14 1 -12 -13 4 -14 18 -27 22 -62 20 -33 -2 -46 2 -55 15
-15 25 -29 22 -21 -4 5 -17 0 -14 -19 11 -18 24 -26 29 -26 18 0 -25 -13 -21
-33 11 -13 20 -17 22 -15 8 4 -27 -15 -30 -27 -4 -14 31 -35 35 -29 6 2 -13 1
-16 -2 -8 -13 28 -41 50 -56 45 -9 -4 -19 -2 -23 4 -3 6 -15 11 -26 11 -10 0
-19 5 -19 10 0 6 -7 10 -15 10 -8 0 -23 4 -33 9 -20 10 -55 24 -102 42 -19 7
-46 21 -59 31 -13 10 -27 15 -32 12 -5 -3 -9 0 -9 5 0 6 -7 11 -15 11 -9 0
-29 7 -45 15 -28 14 -30 14 -30 -3 0 -10 4 -22 9 -27 10 -11 44 -146 38 -151
-2 -2 -12 22 -22 53 -25 81 -55 139 -91 174 -38 37 -55 23 -25 -20 12 -16 21
-32 21 -37 0 -4 -16 -22 -36 -39 -23 -21 -32 -35 -25 -39 6 -4 14 0 17 8 3 9
17 16 29 16 13 0 26 5 28 10 3 6 5 5 3 -1 -2 -10 -35 -31 -98 -61 -24 -11 -50
-10 -43 2 3 6 -3 10 -15 10 -37 0 -17 24 33 40 50 16 63 40 22 40 -14 0 -25 4
-25 8 0 5 -17 16 -39 25 -21 10 -49 33 -62 52 -13 19 -30 35 -36 35 -14 0 -58
40 -45 40 4 0 -1 5 -11 11 -36 21 -39 -1 -34 -218 5 -218 5 -217 66 -395 31
-91 53 -213 44 -248 -9 -33 -36 -22 -69 28 -27 41 -31 56 -32 122 -2 89 -9
129 -28 148 -18 18 -18 32 1 32 19 0 19 14 0 30 -8 7 -15 20 -16 29 0 12 -2
11 -9 -4 -10 -22 -9 -25 -14 67 -2 38 -9 75 -16 83 -9 11 -9 22 -1 46 6 18 11
44 11 58 0 14 7 39 15 55 16 30 10 120 -6 94 -7 -10 -9 -10 -9 2 0 9 6 22 13
29 10 11 10 14 -1 18 -19 7 -14 20 11 27 l22 7 -22 11 c-20 10 -20 13 -8 32
12 19 12 25 0 50 -8 16 -15 44 -15 64 0 34 -1 35 -15 16 -19 -26 -20 -3 0 51
18 49 19 68 3 59 -7 -5 -9 -2 -5 8 3 9 0 24 -8 35 -7 10 -15 30 -18 43 -3 14
-4 3 -4 -25 1 -27 5 -55 10 -62 4 -6 4 -14 -1 -17 -5 -3 -15 8 -22 24 -14 35
-35 41 -24 8 3 -13 3 -20 -1 -16 -15 14 -45 -52 -46 -100 -1 -26 -3 -38 -6
-27 -10 49 -16 48 -33 -5 -10 -30 -19 -49 -19 -42 -1 12 -41 18 -41 5 0 -3 7
-15 17 -25 19 -21 15 -27 -20 -33 -32 -6 -54 17 -32 35 8 7 15 21 15 33 0 11
10 28 22 39 18 16 20 22 11 38 -10 15 -8 21 12 34 14 9 25 22 25 29 0 7 11 28
25 47 13 18 22 37 19 42 -3 5 -12 1 -19 -9 -7 -10 -17 -14 -22 -10 -4 5 4 19
20 31 15 12 27 28 27 36 0 11 -3 11 -12 2 -9 -9 -16 -8 -30 5 -20 17 -24 58
-8 68 6 4 8 11 5 16 -4 5 1 9 10 9 10 0 14 -5 9 -12 -6 -10 -4 -10 7 0 18 16
27 15 31 -5 3 -15 4 -15 17 0 12 15 11 17 -3 17 -9 0 -16 8 -16 20 0 17 -3 19
-19 10 -26 -13 -51 -13 -51 1 0 6 9 9 20 6 13 -3 20 0 20 10 0 9 6 13 15 9 18
-6 20 5 3 22 -7 7 -8 16 -1 24 5 7 10 30 12 51 2 29 -1 37 -14 37 -10 0 -13 5
-9 12 5 8 0 9 -14 6 -19 -5 -22 -2 -21 20 0 23 2 25 11 11 10 -15 14 -11 31
23 15 29 17 42 8 51 -8 8 -11 7 -11 -6 0 -9 -4 -17 -10 -17 -13 0 -13 10 1 49
6 17 15 31 20 31 5 0 9 7 9 16 0 13 -7 15 -36 11 -44 -7 -46 -10 -46 -41 0
-17 -5 -23 -14 -19 -8 3 -14 13 -14 23 0 10 -7 23 -15 30 -21 18 -19 32 5 25
11 -3 28 -2 37 4 16 9 15 10 -6 11 -19 0 -21 3 -12 14 9 11 9 19 0 35 -10 15
-10 25 -2 43 7 13 14 33 17 46 3 12 9 31 12 42 4 15 -1 22 -20 30 -28 10 -33
29 -15 47 6 6 8 16 5 22 -11 17 -26 13 -20 -4 8 -20 -20 -20 -40 0 -8 8 -19
15 -24 15 -18 0 -35 30 -36 63 l-1 32 -77 -2 c-43 -1 -82 -4 -88 -8 -16 -10
-12 6 7 27 9 11 11 18 5 18 -7 0 -12 -4 -12 -10 0 -5 -13 -1 -30 8 -33 19 -39
46 -12 61 11 7 12 10 4 11 -14 0 -51 38 -52 53 0 4 7 7 15 7 10 0 15 10 15 29
0 21 6 32 20 36 22 7 27 31 7 38 -9 4 -9 6 1 6 6 1 12 10 12 21 0 11 7 20 15
20 17 0 20 16 5 25 -18 11 0 25 31 25 18 0 28 4 24 10 -3 6 -2 10 4 10 5 0 11
-5 13 -11 2 -6 25 -11 51 -12 31 -1 47 -6 47 -15 0 -7 5 -10 10 -7 6 3 10 17
10 31 0 15 6 24 15 24 10 0 15 10 15 30 0 27 2 30 25 24 29 -7 32 2 8 28 -14
15 -15 21 -4 27 13 8 7 69 -8 81 -15 12 -66 125 -63 141 2 12 -8 23 -30 33
-18 9 -50 32 -71 51 -21 19 -42 35 -47 35 -5 0 -14 9 -20 20 -6 11 -14 19 -18
16 -4 -2 -30 0 -57 5 -92 16 -98 19 -86 33 8 10 5 16 -14 24 -14 6 -25 16 -25
22 0 5 -11 10 -24 10 -13 0 -26 7 -30 15 -5 15 -36 21 -36 8 0 -5 -19 -7 -41
-7 -23 1 -59 -3 -80 -9 -28 -7 -43 -6 -53 2 -10 8 -23 8 -52 -3 -24 -8 -60
-12 -90 -9 -32 3 -54 1 -58 -6 -10 -16 -97 -13 -119 4 -18 13 -18 14 2 24 11
6 27 11 35 11 9 0 16 5 16 10 0 12 -15 13 -59 4 -26 -6 -31 -11 -29 -32 2 -14
-3 -27 -10 -29 -9 -4 -12 4 -10 23 3 25 0 29 -19 27 -16 -2 -21 2 -17 12 6 16
8 16 63 21 18 1 38 7 43 12 5 5 31 7 58 4 33 -3 50 -1 50 7 0 6 12 11 26 11
18 0 23 -4 17 -12 -4 -8 3 -6 18 3 16 11 57 18 119 22 52 4 109 9 127 13 47 9
73 0 123 -46 25 -22 53 -40 63 -40 10 0 20 -6 23 -13 2 -7 14 -13 24 -14 13
-1 18 3 14 9 -5 7 2 9 20 6 29 -6 46 9 25 23 -7 4 -10 11 -5 16 4 4 12 0 17
-10 15 -27 42 -22 37 7 -4 19 1 27 20 36 22 10 28 8 54 -20 15 -17 28 -39 28
-50 0 -10 7 -20 15 -24 11 -4 15 2 15 28 0 18 -3 47 -6 63 -6 29 -8 30 -48 26
-50 -6 -116 21 -97 40 8 8 17 8 33 0 57 -28 88 -25 88 8 0 22 0 22 34 9 28
-10 48 6 25 21 -11 7 -10 9 4 9 9 0 17 7 17 15 0 8 5 15 11 15 6 0 8 -9 4 -22
-4 -13 -7 -25 -7 -28 -1 -47 16 -37 31 18 l12 47 14 -31 c14 -34 35 -53 35
-33 0 10 3 10 12 1 10 -10 10 -15 -2 -23 -11 -7 -7 -9 17 -4 25 5 34 2 46 -15
l15 -22 18 20 c10 12 21 19 25 16 12 -7 -2 -77 -20 -99 -9 -11 -12 -17 -7 -13
5 4 15 3 23 -3 7 -6 14 -8 14 -3 1 5 2 14 4 19 1 6 3 22 3 38 2 28 32 40 32
12 0 -8 -3 -15 -7 -15 -13 0 -16 -197 -4 -205 6 -3 11 -13 11 -22 0 -8 9 -26
20 -40 11 -15 18 -33 15 -42 -2 -9 0 -23 5 -31 8 -11 10 -3 10 30 0 25 0 54 1
65 0 11 -1 29 -4 40 -2 11 -2 14 0 8 3 -7 8 -13 13 -13 4 0 11 -18 15 -41 4
-22 13 -43 21 -46 11 -4 11 -8 -2 -20 -15 -15 -12 -64 6 -88 4 -5 10 -22 14
-37 3 -15 33 -53 66 -86 65 -64 81 -104 56 -137 -15 -20 -15 -20 -39 8 -13 15
-28 27 -32 27 -4 0 -14 8 -21 18 -26 34 -35 -5 -29 -125 3 -73 2 -113 -5 -113
-16 0 -12 -31 6 -51 15 -17 15 -19 0 -35 -9 -9 -15 -24 -12 -33 14 -48 17 -92
7 -105 -7 -9 -9 -57 -6 -152 7 -167 6 -161 6 -303 -1 -68 3 -119 10 -127 6 -8
7 -20 2 -31 -9 -18 -9 -38 2 -268 3 -66 5 -164 4 -218 0 -98 8 -127 37 -127 7
0 42 -13 76 -29 35 -15 91 -39 126 -51 56 -21 68 -22 115 -11 38 8 68 8 112 0
33 -5 96 -16 140 -24 44 -8 112 -21 150 -30 39 -9 108 -23 155 -31 47 -8 119
-22 160 -30 70 -15 125 -26 193 -38 15 -3 27 -1 27 4 0 8 -40 19 -90 25 -31 4
-70 17 -70 24 0 12 93 41 130 40 30 0 32 -2 14 -9 -34 -14 -39 -30 -8 -30 15
0 32 8 39 17 11 14 29 16 119 14 71 -2 106 1 106 8 0 7 29 11 80 11 52 0 80 4
80 11 0 8 14 9 44 5 24 -4 57 -4 72 0 l29 8 -25 7 c-23 6 -23 7 8 8 22 1 32
-4 32 -14 0 -11 11 -15 40 -15 22 0 40 5 40 10 0 6 18 10 39 10 22 0 41 5 43
11 3 9 10 9 27 -1 23 -12 81 -10 114 4 14 7 17 3 17 -18 0 -24 4 -26 40 -26
22 0 40 5 40 10 0 6 10 4 23 -4 12 -8 40 -18 61 -22 22 -4 50 -17 63 -30 13
-13 30 -21 37 -18 22 8 136 -27 136 -41 0 -8 6 -16 13 -18 10 -4 10 -6 0 -6
-7 -1 -13 -5 -13 -11 0 -6 33 -10 80 -10 47 0 80 4 80 10 0 6 5 10 11 10 6 0
19 10 28 22 26 31 124 42 153 16 30 -26 70 -30 227 -24 87 3 141 2 141 -4 0
-6 5 -10 11 -10 6 0 9 7 5 15 -10 27 26 35 85 20 33 -9 55 -11 57 -5 2 6 10 6
21 0 10 -5 36 -11 57 -13 25 -3 39 -9 39 -18 0 -16 29 -24 53 -14 14 5 14 7 2
15 -11 7 -3 10 26 10 22 0 49 -6 59 -14 19 -14 49 -6 66 18 4 5 33 10 65 12
86 5 112 12 144 34 15 11 35 20 43 20 9 0 17 5 19 11 6 18 195 19 237 2 18 -7
49 -13 68 -13 64 0 124 -21 136 -48 l11 -25 211 7 c115 4 215 3 221 -1 7 -4
13 -17 15 -27 5 -27 29 -33 29 -7 0 14 6 21 18 21 10 0 22 4 27 9 6 5 27 13
47 16 30 6 39 4 44 -9 4 -11 13 -14 32 -9 17 4 23 2 18 -5 -8 -14 25 -32 58
-32 14 0 35 9 45 19 12 12 27 17 40 14 12 -3 21 -1 21 5 0 7 28 11 74 10 40 0
78 2 83 5 16 10 43 -32 43 -68 0 -45 25 -47 34 -3 6 28 8 30 24 16 9 -8 25
-18 35 -21 29 -11 19 -27 -18 -27 -19 0 -35 -4 -35 -9 0 -19 21 -66 33 -73 8
-5 12 -53 12 -163 0 -119 3 -155 12 -155 9 0 13 -15 13 -44 0 -44 34 -136 50
-136 4 0 11 6 14 13 5 9 7 9 12 0 3 -7 15 -13 25 -13 19 0 20 -5 13 -68 -6
-62 -4 -70 12 -77 18 -7 18 -7 -1 -15 -18 -7 -18 -9 10 -21 17 -8 35 -21 42
-29 7 -8 13 -11 13 -6 0 5 7 3 15 -4 12 -10 15 -10 15 4 0 12 10 16 40 16 22
0 40 -4 40 -10 0 -5 18 -10 40 -10 33 0 40 3 40 20 0 13 7 20 19 20 23 0 37
30 19 41 -10 7 -10 11 0 21 7 7 18 13 25 14 7 0 20 2 30 2 11 1 18 9 16 19 -5
56 2 103 16 103 12 0 15 16 15 80 0 64 -3 80 -15 80 -11 0 -15 12 -15 52 0 44
-4 55 -26 73 -24 19 -25 23 -13 46 8 13 20 28 27 32 6 4 12 18 12 30 0 40 15
51 51 41 37 -11 51 -34 20 -34 -12 0 -21 -5 -21 -11 0 -6 7 -9 15 -6 17 7 65
-47 65 -73 0 -10 6 -21 13 -24 10 -5 10 -7 0 -12 -8 -3 -13 -24 -13 -49 0 -26
-6 -50 -16 -59 -13 -13 -14 -30 -9 -91 6 -65 10 -75 27 -75 10 0 32 -10 48
-22 26 -19 30 -28 30 -70 l0 -48 40 0 c54 0 51 -20 -2 -22 l-43 -1 39 -4 c29
-3 44 1 62 18 20 19 24 20 24 6 0 -9 7 -17 15 -17 9 0 19 -8 22 -17 14 -38 46
-71 64 -68 13 3 19 -2 19 -16 0 -12 -7 -19 -20 -19 -16 0 -20 -7 -20 -33 0
-20 8 -41 18 -50 21 -19 102 -24 102 -6 0 6 6 9 13 6 9 -3 11 -27 8 -90 -3
-83 -2 -87 18 -87 12 0 21 -4 21 -10 0 -5 -13 -10 -30 -10 -25 0 -30 4 -30 25
0 31 -11 32 -47 0 l-28 -24 38 -1 c23 0 37 -5 37 -12 0 -9 24 -14 78 -16 42
-1 79 -7 80 -12 6 -17 150 -12 188 6 19 9 34 20 34 25 0 5 9 9 20 9 11 0 20
-4 20 -10 0 -5 9 -10 20 -10 16 0 20 -7 20 -30 0 -16 5 -30 10 -30 6 0 10 7
10 15 0 11 11 15 40 15 39 0 40 -1 40 -35 0 -34 1 -35 40 -35 22 0 40 -4 40
-10 0 -15 137 -13 144 3 5 10 7 10 12 0 3 -7 23 -13 45 -13 21 0 39 -4 39 -9
0 -5 41 -7 90 -4 90 4 90 4 100 -22 6 -15 19 -29 29 -32 11 -3 22 -11 25 -19
3 -8 17 -14 32 -14 19 0 25 -4 21 -15 -10 -24 13 -28 32 -6 23 27 51 27 51 2
0 -11 5 -23 10 -26 6 -3 10 -2 10 2 0 5 18 7 40 5 32 -3 40 -1 40 12 0 12 10
16 40 16 28 0 40 -4 40 -15 0 -11 18 -15 78 -17 76 -3 77 -3 80 -31 3 -20 8
-27 20 -25 13 3 16 12 14 41 -3 34 -1 37 22 37 14 0 26 -4 26 -9 0 -5 14 -12
31 -16 17 -4 33 -13 36 -21 4 -10 26 -14 89 -14 49 0 84 -4 84 -10 0 -5 18
-10 40 -10 22 0 40 5 40 11 0 6 14 -1 31 -15 28 -24 38 -26 120 -26 88 0 89 0
89 -24 0 -24 2 -25 88 -28 60 -2 92 1 103 9 23 19 66 16 89 -7 11 -11 25 -20
30 -20 7 0 10 465 10 1375 l0 1376 -30 -16 c-41 -21 -87 -19 -102 5 -10 15
-24 20 -60 20 -27 0 -48 -4 -48 -10 0 -5 -18 -10 -40 -10 -24 0 -40 5 -40 12
0 6 -10 2 -22 -9 -39 -35 -64 -43 -142 -43 -61 0 -76 3 -76 15 0 13 -20 15
-120 15 -95 0 -120 -3 -120 -14 0 -7 -15 -16 -32 -20 -25 -5 -30 -9 -18 -16
25 -15 -17 -25 -46 -10 -19 10 -24 21 -24 50 0 48 -15 60 -72 60 -41 0 -48 -3
-48 -20 0 -24 -28 -26 -107 -8 -45 11 -53 16 -53 35 0 22 -3 23 -80 23 -64 0
-80 3 -80 15 0 9 -9 15 -23 15 -13 0 -29 6 -35 12 -10 10 -15 10 -22 -2 -8
-13 -11 -12 -24 5 -13 19 -15 19 -21 3 -4 -10 -13 -18 -21 -18 -8 0 -14 -7
-14 -15 0 -11 -11 -15 -40 -15 -39 0 -40 -1 -40 -35 l0 -35 -129 0 c-76 0
-132 -4 -136 -10 -3 -5 -17 -10 -31 -10 -13 0 -24 -6 -24 -14 0 -10 -32 -15
-137 -20 -97 -5 -143 -12 -154 -22 -21 -18 -29 -18 -29 3 0 14 -3 14 -22 -4
-35 -31 -63 -43 -102 -43 -29 0 -36 -4 -36 -20 0 -16 -7 -20 -37 -20 -32 0
-42 -6 -60 -33 -13 -18 -23 -37 -23 -41 0 -5 -11 -21 -24 -37 -21 -24 -25 -26
-29 -11 -3 12 -5 13 -6 2 -1 -8 -20 -24 -42 -35 -39 -18 -42 -18 -54 -2 -16
22 -93 24 -101 2 -8 -19 -28 -19 -44 1 -7 8 -23 14 -34 13 -38 -3 -43 1 -61
41 -21 47 -45 72 -45 47 0 -9 -9 -21 -20 -27 -16 -9 -22 -8 -26 5 -4 8 -18 15
-34 15 -15 0 -30 6 -33 13 -5 12 -135 45 -197 50 -23 1 -35 7 -35 17 0 27 -27
80 -41 80 -8 0 -14 -7 -14 -15 0 -8 -6 -15 -14 -15 -8 0 -16 7 -20 15 -3 8
-15 15 -26 15 -11 0 -20 6 -20 13 0 7 -17 30 -37 50 -48 50 -63 81 -63 128 0
25 -9 54 -26 81 -19 30 -23 43 -14 48 19 12 -21 30 -64 30 -37 0 -47 15 -24
38 9 9 6 12 -15 12 l-27 0 0 80 c0 64 3 80 15 80 8 0 15 3 15 8 0 4 18 18 41
32 39 25 40 26 38 78 l-3 53 47 31 c34 22 47 37 47 54 0 25 15 40 25 24 10
-16 21 -12 35 15 7 14 21 25 31 25 10 0 21 5 24 10 12 20 35 10 35 -15 0 -26
14 -31 40 -15 10 6 13 23 11 54 -2 45 -2 46 28 46 21 0 31 5 31 15 0 21 27 19
39 -2 9 -16 10 -16 11 3 0 12 7 24 15 28 8 3 15 12 15 20 0 12 33 15 218 15
180 1 219 4 228 16 14 19 71 19 90 0 9 -8 23 -15 33 -15 19 0 41 -38 41 -73 0
-12 7 -31 15 -41 19 -25 19 -46 0 -46 -26 0 -17 -14 25 -40 33 -20 40 -30 40
-56 0 -31 2 -32 45 -36 41 -3 46 -1 56 24 15 36 30 35 84 -2 24 -16 46 -30 49
-30 3 0 6 14 6 30 0 30 1 30 54 30 45 0 54 3 59 20 3 12 14 20 26 20 12 0 21
5 21 10 0 6 18 10 40 10 22 0 40 5 40 10 0 6 18 10 40 10 27 0 40 4 40 14 0 7
9 16 21 19 11 3 23 15 26 26 7 27 33 27 33 1 0 -25 14 -26 32 -2 20 26 54 42
93 42 31 0 35 -3 35 -25 0 -22 4 -25 40 -25 l40 0 0 50 0 50 80 0 c50 0 80 -4
80 -11 0 -7 30 -8 94 -3 95 7 146 1 146 -15 0 -5 -8 -12 -17 -14 -10 -3 6 -5
36 -6 47 -1 57 3 81 27 26 28 28 28 123 24 74 -3 97 -8 97 -18 0 -10 7 -13 23
-9 16 4 29 0 41 -14 31 -34 103 -26 144 16 17 17 32 17 32 0 0 -14 35 -47 50
-47 6 0 19 5 30 12 15 9 24 9 43 -1 14 -7 30 -10 37 -6 6 4 20 -1 31 -11 11
-10 19 -12 19 -5 0 7 13 10 38 6 20 -2 81 -7 135 -10 97 -6 97 -6 97 17 0 19
8 26 40 35 22 5 40 6 40 2 0 -5 18 -9 40 -9 l40 0 0 1585 0 1585 -5055 0
c-3363 0 -5055 -3 -5055 -10 0 -5 4 -10 10 -10 5 0 21 -17 34 -38 13 -21 36
-46 50 -55 l26 -17 -10 26 c-12 31 -12 34 -2 34 5 0 18 -18 29 -41 12 -23 24
-36 27 -30 6 9 12 60 16 126 0 6 4 4 9 -3 4 -8 9 -49 10 -93 2 -67 6 -86 28
-117 13 -20 29 -36 34 -34 5 1 9 -2 9 -8 0 -5 7 -7 15 -4 11 4 13 2 9 -9 -3
-8 -1 -18 5 -22 16 -9 25 23 12 39 -8 10 -9 16 -1 21 5 3 11 21 11 38 1 20 5
9 10 -27 11 -74 32 -103 27 -37 -2 29 1 46 10 48 7 3 12 -4 12 -17 0 -20 37
-80 50 -80 3 0 11 20 18 44 9 36 9 54 -3 93 -18 58 -18 63 -4 63 9 0 68 -121
75 -155 1 -5 3 -14 4 -20 1 -5 5 -2 8 8 4 10 8 -15 9 -55 1 -59 7 -88 34 -151
18 -42 37 -77 42 -77 4 0 5 10 1 23 -5 12 -8 33 -8 47 5 151 8 202 16 206 4 3
8 -6 8 -20 0 -14 5 -26 11 -26 7 0 9 -11 6 -27 -8 -42 15 -173 30 -173 17 0
16 -15 -1 -33 -18 -17 -22 -55 -9 -86 9 -23 10 -24 15 -4 3 11 2 27 -3 34 -5
8 -9 21 -9 29 1 12 3 12 14 -2 7 -10 16 -18 20 -18 13 0 37 72 31 93 -4 15 -3
18 3 9 7 -11 11 -8 16 11 3 14 4 32 1 39 -9 23 -11 208 -3 208 5 0 8 -18 8
-39 0 -22 4 -42 9 -45 8 -5 31 52 44 109 3 11 5 2 6 -20 1 -22 5 -56 7 -75 3
-19 5 -75 4 -123 0 -58 3 -86 10 -82 5 3 10 15 10 25 0 24 10 50 20 50 4 0 1
-24 -7 -52 -17 -69 -11 -82 17 -35 12 20 24 37 26 37 2 0 -6 -26 -17 -57 -12
-32 -24 -65 -27 -73 -3 -8 -4 -22 -3 -32 1 -9 -3 -19 -9 -23 -5 -3 -10 -13
-10 -21 0 -27 17 -6 52 68 33 68 49 109 53 133 5 26 18 55 26 55 5 0 9 7 9 16
0 9 9 27 20 41 11 14 20 32 20 39 0 19 20 68 26 62 2 -3 -9 -44 -26 -92 -17
-48 -28 -91 -25 -96 3 -6 1 -10 -4 -10 -6 0 -11 -13 -11 -28 0 -15 -4 -32 -10
-38 -16 -16 -39 -103 -29 -110 5 -3 -1 -18 -12 -34 -12 -15 -19 -33 -15 -38 3
-5 -1 -12 -9 -16 -8 -3 -12 -12 -9 -20 3 -8 -5 -21 -18 -31 l-23 -17 25 7 c46
13 78 34 99 64 12 16 21 33 21 39 0 5 7 15 15 22 9 7 14 19 11 27 -3 7 -1 13
4 13 5 0 12 9 15 21 10 30 65 89 83 89 12 0 8 -9 -14 -32 -17 -18 -43 -55 -59
-83 -15 -27 -37 -65 -48 -84 l-21 -34 28 7 c43 11 22 -9 -30 -29 -30 -11 -42
-20 -34 -25 10 -6 6 -19 -14 -55 -15 -26 -25 -49 -22 -52 11 -11 150 101 151
122 0 17 29 51 50 58 18 6 18 5 -2 -12 -13 -11 -23 -27 -23 -36 0 -28 -18 -52
-55 -74 -39 -22 -63 -67 -46 -84 11 -11 133 12 204 39 20 8 47 14 60 13 12 0
1 -6 -25 -13 -26 -7 -53 -17 -60 -23 -19 -16 -132 -43 -155 -37 -16 5 -20 0
-20 -25 l0 -31 51 5 c36 4 45 3 31 -4 -11 -5 -29 -10 -39 -10 -26 -1 -88 -50
-80 -63 4 -6 10 -5 16 3 8 11 9 11 5 -1 -2 -8 -12 -17 -22 -19 -10 -1 -27 -11
-38 -21 -19 -18 -19 -19 22 -16 47 4 101 46 101 78 0 14 7 18 28 16 15 -1 37
4 49 10 29 16 38 15 23 -3 -7 -8 -18 -15 -25 -15 -8 0 -28 -12 -46 -27 l-33
-28 30 -6 29 -7 -34 -1 c-27 -1 -31 -3 -22 -15 7 -8 23 -17 37 -20 14 -4 22
-11 19 -16 -3 -6 2 -10 11 -10 10 0 15 -3 12 -6 -3 -3 -24 0 -45 6 -40 12 -40
12 -87 -34 -50 -48 -48 -50 22 -37 23 5 44 5 47 1 6 -10 -96 -39 -127 -35 -20
2 -29 -2 -33 -16 -4 -10 -12 -19 -19 -19 -22 0 -66 -25 -66 -37 0 -19 12 -16
50 12 19 14 40 25 47 25 7 0 13 5 13 10 0 6 5 10 10 10 22 0 8 -16 -35 -42
-47 -29 -62 -54 -22 -39 128 50 225 100 310 159 74 51 95 60 79 36 -23 -35
-309 -204 -345 -204 -9 0 -45 -10 -79 -22 -35 -12 -76 -21 -93 -20 -27 2 -28
0 -13 -12 10 -7 15 -15 12 -18 -12 -12 216 45 269 67 9 4 17 3 17 -1 0 -12
-79 -44 -107 -44 -12 0 -25 -4 -28 -10 -3 -5 -19 -10 -35 -10 -16 0 -32 -4
-35 -10 -9 -15 42 -12 73 4 15 8 50 17 77 21 28 4 64 11 80 16 70 20 237 57
229 49 -10 -9 -163 -51 -279 -75 -44 -10 -86 -22 -92 -27 -7 -6 -52 -16 -100
-24 l-88 -13 77 3 77 3 -17 -22 c-11 -14 -24 -20 -39 -17 -32 6 -29 -5 7 -23
45 -23 153 -19 262 10 109 29 101 28 92 14 -5 -8 1 -10 19 -7 15 3 24 1 21 -3
-3 -5 -25 -9 -48 -9 -24 0 -70 -8 -102 -19 -33 -10 -84 -22 -114 -25 -83 -11
-93 -15 -79 -32 18 -22 162 -18 244 7 37 11 69 18 72 15 7 -7 -124 -46 -161
-47 -30 -1 -30 -1 -6 -9 17 -6 7 -7 -30 -4 -50 5 -53 4 -36 -10 10 -8 44 -18
75 -21 31 -4 70 -11 86 -15 28 -8 29 -8 5 -10 l-25 -1 25 -11 c14 -6 39 -12
55 -14 37 -4 145 -31 153 -38 3 -3 -4 -6 -15 -6 -23 0 -76 9 -270 46 -12 2
-28 10 -35 17 -8 8 -23 11 -38 7 -16 -5 -39 0 -65 13 -22 11 -47 23 -55 27 -9
4 -30 11 -48 15 -34 7 -44 -9 -20 -33 6 -6 8 -15 4 -19 -4 -5 -16 4 -27 19
-13 18 -26 25 -37 22 -13 -5 -14 -4 -3 4 7 5 10 15 7 21 -10 16 -36 13 -36 -4
0 -10 -10 -15 -30 -15 -21 0 -28 -4 -24 -14 8 -21 34 -28 50 -15 9 8 14 8 14
1 0 -6 10 -12 22 -14 12 -2 23 -9 26 -17 3 -8 0 -11 -7 -7 -6 4 -11 2 -11 -3
0 -14 6 -14 32 0 12 6 23 7 27 2 3 -5 22 -17 41 -26 45 -21 89 -56 72 -57 -7
0 -22 5 -33 11 -11 6 -30 12 -42 14 -22 4 -22 4 1 -13 13 -10 20 -21 16 -25
-11 -11 -24 -8 -22 4 2 6 -2 13 -8 16 -12 4 -26 -29 -27 -65 -1 -17 -5 -21
-19 -16 -10 3 -18 0 -18 -6 0 -6 -10 -8 -27 -4 -22 6 -25 4 -20 -10 5 -11 1
-16 -13 -16 -11 0 -20 4 -20 10 0 6 -10 6 -27 -1 -14 -5 -32 -8 -40 -5 -13 6
-19 -34 -7 -47 11 -11 46 14 40 29 -3 8 -1 14 4 14 6 0 10 -9 10 -20 0 -24 15
-26 24 -4 5 13 9 14 21 4 21 -17 -1 -49 -33 -47 -31 2 -40 -19 -12 -28 20 -6
21 -7 3 -21 -10 -7 -14 -14 -9 -14 6 0 1 -6 -10 -14 -16 -13 -17 -18 -7 -35 7
-12 13 -28 13 -36 0 -8 5 -15 11 -15 8 0 10 12 6 35 -5 28 -1 40 18 59 13 13
21 27 17 31 -4 4 5 5 21 1 20 -5 27 -3 27 9 0 8 -5 15 -11 15 -6 0 -9 6 -6 13
2 6 12 11 22 9 10 -2 21 0 24 5 3 4 16 16 28 26 20 18 23 18 45 3 l22 -16 -22
0 c-12 0 -22 -4 -22 -10 0 -5 4 -10 8 -10 6 0 7 -25 3 -61 -1 -4 -12 -10 -26
-13 -26 -7 -32 -20 -15 -31 6 -3 10 -1 10 4 0 6 4 11 8 11 4 0 7 -28 6 -62 -1
-44 -6 -65 -18 -73 -9 -7 -16 -17 -16 -24 0 -6 -4 -11 -10 -11 -13 0 -13 16 1
41 5 11 15 17 20 13 7 -4 7 1 0 14 -24 45 -39 38 -43 -22 -1 -21 -6 -40 -10
-42 -4 -3 -8 -14 -8 -25 0 -11 -7 -22 -15 -25 -8 -4 -15 -12 -15 -19 0 -7 -6
-15 -13 -18 -22 -8 -40 9 -35 31 4 13 0 23 -8 26 -10 4 -16 -4 -21 -24 -7 -36
-20 -47 -36 -31 -9 9 -9 14 2 20 20 13 -3 23 -34 15 -14 -3 -25 -11 -25 -16 0
-6 -6 -8 -14 -5 -11 4 -14 -1 -13 -21 2 -21 -3 -27 -18 -28 -38 -3 -40 -4 -25
-14 8 -5 11 -12 7 -16 -8 -9 -137 54 -137 67 0 5 -7 9 -15 9 -9 0 -15 9 -15
22 0 17 -3 19 -12 10 -16 -16 -25 -15 -32 3 -3 8 -2 14 2 13 4 -1 24 1 45 5
33 7 36 10 22 23 -8 9 -15 19 -15 23 0 15 48 33 69 26 26 -8 27 6 1 22 -15 10
-22 10 -32 -1 -7 -7 -19 -11 -27 -8 -9 3 -11 0 -6 -8 6 -10 1 -11 -21 -6 -16
4 -37 7 -48 7 -22 0 -11 14 12 15 47 3 52 5 52 25 0 19 -1 19 -22 5 -12 -9
-41 -16 -63 -16 l-40 1 30 14 c29 13 30 13 5 15 l-25 1 25 15 c24 15 24 15
-17 9 -24 -3 -43 -1 -43 3 0 5 -15 9 -32 9 -18 0 -54 6 -81 12 -30 6 -55 7
-70 1 -12 -5 -91 -14 -176 -20 -94 -7 -165 -17 -182 -26 -15 -7 -48 -14 -73
-14 -25 0 -47 -4 -50 -9 -3 -5 -23 -9 -45 -9 -21 0 -57 -6 -79 -11 -22 -6 -75
-11 -118 -10 -133 1 -174 -1 -174 -11 0 -17 -37 -11 -44 6 -10 27 -16 25 154
39 41 3 86 8 100 12 14 3 48 8 77 10 29 3 57 11 64 19 6 8 18 14 25 14 17 0
56 21 66 35 4 6 8 6 8 2 0 -5 14 0 31 10 29 17 31 17 44 0 9 -13 14 -14 17 -5
3 7 17 12 31 10 18 -1 27 3 27 13 0 24 20 17 21 -7 l0 -23 11 23 c8 16 20 22
44 22 18 0 36 5 39 10 3 6 15 10 26 10 10 0 19 -4 19 -10 0 -5 9 -10 21 -10
11 0 17 -4 14 -10 -3 -5 -1 -10 4 -10 6 0 11 5 11 10 0 6 30 10 70 10 55 0 71
-3 79 -17 6 -10 11 -12 11 -5 0 17 47 15 103 -4 45 -15 59 -38 17 -27 -11 3
-20 0 -20 -6 0 -18 164 -7 168 12 2 8 -6 17 -18 20 -12 3 -20 14 -21 29 -1 17
-3 18 -6 6 -3 -14 -15 -18 -51 -18 -33 0 -43 3 -32 9 8 6 18 7 22 5 5 -3 18
-2 31 2 23 9 15 11 -103 30 -25 3 -53 13 -62 22 -10 8 -26 12 -38 9 -11 -3
-20 -1 -20 4 0 5 12 10 28 10 l27 1 -28 7 c-28 6 -28 6 -7 24 11 9 29 17 40
17 11 0 20 4 20 8 0 4 55 8 123 9 67 0 122 5 122 9 0 19 -34 56 -45 49 -8 -5
-10 6 -4 41 8 59 11 64 19 32 3 -13 15 -30 27 -37 23 -14 38 -7 20 11 -19 19
-14 49 8 55 25 7 25 12 3 29 -17 13 -17 13 2 14 29 0 49 -16 42 -33 -4 -11 4
-19 26 -28 18 -7 35 -14 39 -17 5 -2 8 1 8 7 0 6 -7 11 -15 11 -8 0 -15 5 -15
11 0 6 -6 9 -14 6 -10 -4 -16 5 -20 29 -4 19 -11 34 -16 34 -6 0 -10 9 -10 20
0 13 12 25 35 35 20 8 53 32 74 53 20 22 51 43 69 47 18 3 30 11 26 16 -3 5
-13 5 -24 -1 -10 -5 -30 -10 -44 -10 -15 0 -26 -6 -26 -13 0 -8 -10 -18 -23
-24 -19 -9 -28 -6 -49 12 l-27 23 36 7 37 7 -30 14 c-21 10 -30 22 -31 42 -2
24 4 30 38 45 21 9 44 17 50 17 7 0 9 11 5 30 -5 30 5 59 31 87 22 24 25 13 4
-13 -23 -29 -27 -59 -11 -69 6 -3 14 4 19 17 5 13 18 32 30 42 25 23 28 38 5
29 -15 -5 -15 -4 1 20 9 14 22 24 28 21 7 -2 18 5 25 16 7 12 8 20 2 20 -5 0
-10 -5 -10 -11 0 -5 -4 -8 -9 -4 -10 6 4 60 20 81 5 6 3 16 -3 22 -8 8 -7 13
5 18 21 8 22 24 2 24 -12 0 -46 -48 -45 -65 1 -23 -2 -26 -14 -22 -9 4 -27 -9
-48 -35 -18 -22 -53 -61 -77 -87 -36 -39 -41 -41 -28 -16 8 17 34 48 56 70 23
21 41 44 41 50 0 6 11 22 25 35 14 13 25 29 25 35 0 6 11 22 25 35 14 13 25
31 25 39 -1 14 -2 13 -11 -1 -15 -27 -30 -22 -23 7 4 15 2 25 -5 25 -6 0 -12
-10 -12 -22 -1 -13 -5 -3 -9 22 -6 36 -4 50 11 72 25 35 26 80 2 71 -10 -4
-21 -10 -24 -15 -3 -5 -13 -6 -23 -2 -15 6 -15 8 6 20 13 8 31 17 40 20 10 3
15 10 12 15 -3 5 -20 2 -39 -5 -32 -14 -34 -13 -37 7 -4 27 -23 24 -22 -3 1
-23 -7 -25 -24 -8 -9 9 -12 8 -12 -5 0 -9 -5 -17 -11 -17 -7 0 -8 -7 -4 -17 4
-10 11 -36 16 -58 4 -22 11 -48 14 -57 4 -10 3 -18 -3 -18 -6 0 -12 10 -14 23
-2 15 -9 21 -20 19 -20 -3 -24 18 -7 35 8 8 8 17 1 29 -9 17 -11 16 -23 -9
-14 -31 -30 -36 -22 -7 4 16 2 19 -11 14 -12 -4 -16 -1 -14 12 3 36 -2 55 -12
49 -5 -3 -10 0 -10 8 0 8 7 17 15 21 8 3 15 2 15 -3 0 -4 7 -8 15 -8 16 0 18
7 9 31 -3 9 -10 13 -15 10 -5 -3 -9 3 -9 14 0 10 -11 32 -25 48 -19 22 -25 25
-25 12 0 -9 5 -20 10 -23 13 -8 13 -35 1 -35 -5 0 -15 16 -22 35 -12 33 -23
39 -66 38 -9 -1 -13 15 -13 47 0 47 -26 90 -45 73 -4 -5 -5 -2 -1 5 4 7 2 19
-4 27 -7 8 -10 22 -6 30 3 8 1 15 -4 15 -13 0 -20 -29 -25 -105 -2 -37 -9 -73
-16 -79 -9 -8 -10 -4 -5 18 5 19 3 32 -6 37 -9 6 -10 19 -2 60 10 47 9 52 -7
56 -11 3 -19 9 -19 13 0 5 9 6 20 3 11 -3 20 -1 20 4 0 24 -23 72 -36 77 -12
5 -14 -1 -8 -31 5 -24 3 -34 -4 -29 -6 3 -13 -2 -15 -11 -3 -10 -6 2 -8 27 -1
25 -3 53 -4 62 0 9 -4 20 -8 24 -4 4 -7 20 -7 36 0 17 -5 28 -14 28 -20 0 -63
54 -71 90 -4 16 -11 30 -16 30 -20 0 7 -69 49 -128 26 -35 12 -45 -16 -11 -9
11 -25 30 -34 41 -10 11 -20 29 -23 39 -7 20 -25 26 -25 9 0 -5 5 -30 12 -55
9 -32 17 -45 30 -45 10 0 18 -7 18 -15 0 -23 -13 -18 -61 25 -24 22 -53 40
-64 39 -16 0 -13 -6 19 -34 22 -19 45 -35 52 -35 8 0 11 -6 8 -15 -4 -8 -1
-15 5 -15 6 0 11 -6 11 -13 0 -8 9 -22 20 -32 20 -18 20 -17 21 11 0 26 1 27
9 8 4 -12 15 -24 24 -27 9 -4 16 -12 15 -19 0 -10 -2 -10 -6 0 -2 6 -9 10 -14
6 -5 -3 -2 -18 8 -34 9 -16 14 -32 10 -36 -8 -8 -46 36 -47 54 0 6 -5 12 -11
12 -6 0 -31 16 -55 36 -24 20 -44 32 -44 28 0 -5 -8 4 -19 19 -22 34 -61 64
-61 46 0 -6 -7 -9 -15 -5 -19 7 -19 10 9 -76 13 -40 29 -93 36 -118 6 -25 13
-53 16 -62 3 -10 2 -18 -3 -18 -5 0 -14 22 -20 50 -10 43 -49 133 -101 235 -9
17 -19 37 -23 45 -45 96 -67 133 -86 143 -11 7 -60 36 -107 65 -68 42 -98 55
-141 59 -65 7 -72 -2 -14 -17 27 -8 39 -16 35 -25 -2 -7 2 -16 10 -19 8 -3 14
-14 14 -25 0 -11 5 -23 11 -26 19 -12 21 3 4 35 -34 66 16 42 61 -29 37 -58
106 -129 122 -123 17 5 -23 59 -62 83 -37 23 -39 31 -8 36 17 2 25 -3 29 -17
3 -11 9 -21 14 -21 5 -1 14 -2 20 -3 5 0 18 -14 27 -31 9 -16 25 -38 35 -49
19 -22 22 -36 7 -36 -6 0 -5 -10 2 -25 6 -14 15 -25 20 -25 5 0 6 -5 3 -10 -4
-6 -1 -17 5 -25 10 -12 9 -15 -4 -15 -9 0 -16 -4 -16 -10 0 -5 -18 10 -40 34
-22 24 -40 50 -40 59 0 14 -28 32 -37 24 -7 -8 9 -37 21 -37 7 0 6 -3 -2 -9
-14 -8 6 -47 75 -150 29 -43 18 -64 -14 -25 -12 16 -23 33 -23 38 0 9 -58 85
-89 117 -9 9 -26 28 -38 43 -21 23 -43 34 -43 21 0 -13 37 -62 63 -84 15 -13
32 -33 39 -45 10 -19 8 -19 -18 4 -75 67 -107 100 -101 106 3 4 -10 15 -31 26
-51 25 -88 55 -80 64 4 4 13 2 20 -4 13 -10 95 -42 110 -42 18 0 -6 29 -27 34
-14 4 -29 15 -34 25 -6 10 -31 31 -56 45 -26 16 -45 34 -45 44 0 21 -18 42
-36 42 -6 0 -15 -12 -18 -26 -8 -32 19 -59 78 -76 45 -13 74 -32 41 -27 -11 2
-30 0 -42 -5 -27 -9 -60 10 -67 38 -10 38 -26 4 -17 -37 5 -21 5 -37 0 -37 -5
0 -9 8 -9 18 -1 9 -7 28 -15 42 -8 16 -10 29 -4 36 6 8 4 14 -6 18 -10 4 -14
2 -9 -5 4 -7 1 -10 -7 -7 -8 3 -13 13 -11 22 2 9 -4 19 -12 22 -9 3 -14 10
-11 14 10 16 -36 42 -82 46 -160 14 -217 15 -203 5 8 -6 23 -11 32 -11 22 0
110 -45 103 -52 -3 -3 10 -8 29 -11 19 -3 50 -12 68 -20 18 -8 41 -17 51 -21
9 -3 17 -10 17 -16 0 -13 -50 -2 -71 16 -18 16 -39 18 -39 4 0 -5 -11 -10 -25
-10 -18 0 -23 4 -19 15 7 17 -6 19 -101 16 -33 0 -101 8 -152 19 -111 24 -104
24 -97 5 4 -10 0 -15 -14 -15 -12 0 -23 -3 -25 -8 -12 -18 -102 2 -111 24 -3
8 -13 14 -23 14 -13 0 -7 -9 20 -35 20 -19 44 -35 53 -35 14 0 14 -3 4 -15
-10 -13 -9 -15 11 -15 17 0 20 -3 10 -9 -7 -5 -22 -6 -34 -3 -14 4 -18 2 -12
-7 5 -10 2 -11 -12 -7 -11 4 -28 4 -37 0 -30 -11 -17 -24 27 -25 l42 -2 -40
-7 -40 -6 40 -8 c22 -4 56 -13 75 -21 19 -7 55 -18 80 -25 72 -20 78 -22 57
-27 -10 -3 -32 0 -49 6 -39 14 -88 14 -88 1 0 -5 18 -13 40 -16 23 -4 39 -9
36 -11 -3 -3 -34 0 -70 6 -61 11 -70 10 -118 -11 -57 -24 -168 -87 -168 -95 0
-3 9 -3 20 0 29 7 25 0 -10 -18 -37 -19 -51 -19 -25 1 19 16 19 16 -5 9 -57
-15 -209 -100 -210 -116 0 -14 68 18 117 54 28 20 57 37 64 37 17 -1 -27 -40
-45 -40 -6 0 -19 -12 -30 -26 -15 -22 -16 -28 -5 -35 8 -5 10 -9 4 -9 -5 0
-17 4 -25 10 -9 5 -19 5 -27 -2 -7 -6 -26 -8 -43 -5 -16 4 -32 2 -35 -3 -3 -5
-16 -9 -28 -8 -12 1 -53 -11 -92 -26 -38 -15 -82 -32 -97 -38 -16 -6 -28 -14
-28 -19 0 -5 -7 -9 -15 -9 -8 0 -15 -4 -15 -10 0 -5 -6 -10 -14 -10 -7 0 -20
-8 -27 -17 -12 -15 -12 -16 4 -10 60 22 63 14 8 -17 -36 -20 -79 -49 -95 -66
-17 -16 -42 -39 -56 -49 -23 -19 -24 -20 -5 -21 11 0 29 6 40 14 46 32 117 67
128 63 7 -2 -4 -12 -23 -22 -18 -10 -40 -23 -47 -30 -7 -7 -29 -23 -49 -36
-56 -34 -84 -64 -84 -90 0 -18 3 -20 12 -11 7 7 22 12 34 12 13 0 26 5 30 11
4 8 -3 9 -26 4 -48 -11 -34 17 16 30 21 6 71 31 109 56 81 52 161 99 169 99
19 0 1 -22 -31 -39 -46 -24 -28 -27 25 -5 83 36 199 63 187 44 -3 -4 -15 -10
-27 -13 -34 -7 -117 -42 -163 -67 -22 -11 -32 -19 -23 -16 9 2 19 -1 21 -8 3
-8 -4 -13 -23 -13 -28 0 -60 -22 -60 -42 0 -5 -18 -30 -40 -56 -66 -76 -90
-112 -100 -144 l-9 -31 32 21 c41 28 66 59 67 82 0 9 7 17 15 17 8 0 15 6 15
13 0 17 49 75 50 59 0 -7 -12 -34 -27 -59 -24 -41 -24 -44 -5 -32 11 7 29 31
39 53 10 22 29 46 42 53 57 28 233 191 406 376 55 59 107 107 115 106 10 0 7
-7 -10 -22 -27 -24 -55 -57 -48 -57 2 0 29 18 58 40 31 23 46 40 37 40 -32 0
-17 19 36 44 58 27 117 44 104 30 -5 -5 -12 -9 -15 -9 -16 0 -102 -40 -102
-47 0 -13 54 3 63 19 13 22 29 16 17 -7 -9 -17 -7 -22 15 -32 22 -10 24 -13
10 -21 -10 -5 -21 -4 -31 3 -11 10 -14 9 -14 -3 0 -8 -14 -20 -30 -27 -17 -7
-29 -15 -26 -17 6 -6 -65 -73 -76 -73 -5 0 -26 -18 -48 -40 -23 -23 -46 -38
-52 -34 -7 4 -8 3 -4 -4 4 -7 13 -12 21 -12 7 0 15 -5 17 -12 3 -8 9 -8 24 0
18 11 18 12 -4 18 -23 7 -23 7 -3 25 11 11 24 19 28 19 5 0 25 14 46 31 21 17
41 29 44 25 4 -3 1 -6 -6 -6 -7 0 -9 -5 -6 -10 3 -6 -4 -14 -17 -20 -32 -13
-72 -49 -64 -57 4 -4 10 -3 14 2 9 12 74 36 80 30 3 -2 -5 -8 -16 -12 -14 -6
-19 -12 -13 -22 7 -10 13 -8 30 10 11 12 24 19 28 15 4 -4 1 -11 -7 -16 -27
-17 -2 -22 28 -6 42 22 53 41 19 32 -21 -5 -25 -3 -21 9 4 10 0 15 -10 15 -24
0 -19 14 11 28 32 14 43 15 43 3 0 -5 -10 -11 -22 -15 -17 -4 -20 -8 -11 -17
18 -18 62 -13 84 10 11 11 26 21 34 21 8 0 15 4 15 10 0 6 -18 7 -45 3 -31 -4
-45 -2 -45 6 0 6 9 11 19 11 11 0 21 6 23 12 4 10 10 10 33 0 32 -15 36 -13
29 14 -4 15 -12 20 -28 17 -15 -3 -25 1 -30 12 -5 14 -2 16 14 12 11 -3 27 1
34 9 14 14 46 10 46 -6 0 -5 23 1 50 13 34 14 53 29 56 44 7 27 33 37 77 29
17 -3 26 -3 19 0 -23 10 -2 22 26 15 15 -4 37 -3 50 3 18 7 25 7 32 -3 4 -8
12 -11 18 -7 6 3 13 2 17 -3 3 -6 12 -8 19 -5 7 3 16 -2 19 -10 4 -10 18 -16
35 -16 16 0 35 -7 42 -15 15 -19 8 -19 -54 0 -55 17 -116 20 -116 6 0 -6 21
-13 46 -17 34 -5 43 -9 31 -15 -9 -5 -26 -5 -40 0 -26 10 -93 -2 -111 -20 -6
-5 -20 -9 -32 -9 -12 0 -36 -6 -54 -14 -38 -15 -26 -29 23 -25 17 1 45 -3 60
-10 36 -14 42 -14 56 3 17 20 110 39 126 26 8 -7 22 -5 43 6 37 18 78 15 74
-5 -2 -10 6 -12 33 -8 19 3 33 2 30 -2 -2 -5 -35 -12 -72 -15 -88 -9 -173 -26
-173 -34 1 -8 71 -42 87 -42 6 0 13 -7 17 -15 4 -11 14 -13 37 -8 20 4 30 2
26 -4 -3 -5 22 -19 55 -30 48 -16 62 -25 65 -42 2 -18 -1 -21 -17 -16 -40 13
-17 -11 64 -68 82 -57 196 -161 196 -179 0 -8 -60 35 -105 76 -52 48 -153 125
-184 141 -19 9 -52 30 -74 46 -22 16 -45 29 -52 29 -7 0 -24 10 -39 21 -15 12
-29 19 -32 16 -6 -5 190 -137 264 -177 23 -13 42 -27 42 -31 0 -20 -77 3 -140
41 -38 23 -86 48 -105 54 -19 7 -38 15 -42 19 -3 4 -17 0 -29 -8 -17 -11 -24
-11 -27 -2 -2 7 -26 12 -57 14 -34 1 -58 7 -65 16 -5 8 -21 18 -34 22 -24 7
-24 7 -5 -12 10 -11 27 -23 37 -26 10 -4 15 -11 12 -17 -4 -6 -10 -8 -15 -5
-5 3 -25 6 -45 7 -33 1 -35 3 -31 30 4 27 -9 49 -16 27 -2 -7 -13 -5 -32 5
-27 14 -56 12 -56 -3 0 -11 -43 -8 -56 4 -8 7 -4 13 13 22 14 7 29 12 35 10 6
-1 13 4 16 12 3 9 0 11 -8 6 -7 -4 -15 -4 -19 1 -3 5 -16 14 -27 21 -19 10
-23 9 -27 -8 -3 -10 -11 -19 -18 -19 -10 0 -10 3 -1 12 30 30 5 37 -29 8 -17
-14 -19 -18 -6 -14 10 4 17 1 17 -6 0 -8 -8 -10 -22 -7 -27 8 -61 -10 -54 -29
3 -7 -3 -18 -12 -23 -9 -6 -12 -11 -5 -11 6 0 19 -3 28 -6 10 -4 15 -2 13 7
-4 16 40 25 54 11 6 -6 0 -12 -16 -16 -37 -9 -32 -21 16 -44 33 -17 45 -19 62
-10 11 6 39 13 61 14 39 3 40 3 15 -11 -14 -8 -33 -14 -42 -15 -27 0 -21 -16
11 -30 21 -8 35 -9 49 -1 33 17 47 14 29 -7 -10 -10 -17 -22 -17 -25 0 -4 28
-8 63 -9 39 -1 49 -3 27 -5 -36 -5 -67 -23 -38 -23 8 0 21 -6 27 -14 10 -12 6
-12 -33 -1 -46 14 -116 10 -116 -6 0 -5 11 -9 24 -9 33 0 56 -10 56 -24 0 -9
-22 -5 -72 11 -42 14 -74 19 -78 14 -9 -15 -58 -31 -95 -31 -19 0 -37 -4 -40
-10 -3 -5 -24 -14 -47 -21 -38 -10 -40 -11 -20 -22 11 -7 50 -29 85 -49 48
-28 77 -38 108 -38 28 0 40 -3 33 -10 -13 -13 -90 -14 -144 -2 -67 16 -135 15
-150 -3 -7 -8 -18 -15 -24 -15 -7 0 -21 -7 -32 -16 -18 -15 -18 -15 9 -9 19 4
26 2 22 -5 -3 -5 -13 -10 -21 -10 -8 0 -14 -6 -14 -14 0 -9 -18 -16 -55 -21
-44 -5 -55 -10 -53 -23 2 -10 -5 -18 -17 -20 -16 -2 -17 -1 -5 7 13 9 12 11
-3 11 -10 0 -20 -6 -23 -14 -3 -8 -17 -17 -31 -21 -21 -5 -23 -8 -11 -22 11
-15 10 -16 -10 -10 -27 6 -78 -9 -85 -26 -3 -9 15 -11 65 -9 55 3 67 6 58 17
-8 9 -2 16 24 29 37 17 86 22 86 7 0 -5 -18 -11 -40 -15 -50 -8 -43 -26 10
-26 21 0 42 -5 45 -10 4 -6 3 -10 -2 -9 -28 5 -103 -3 -103 -10 0 -25 275 -33
353 -11 26 8 47 18 47 21 0 7 -97 39 -119 39 -6 0 -11 -4 -11 -10 0 -5 5 -10
12 -10 6 0 9 -2 7 -4 -2 -2 -31 0 -64 4 -35 4 -65 3 -72 -2 -9 -7 -18 -4 -30
8 -17 16 -15 17 47 11 61 -6 103 3 88 19 -4 4 -40 9 -80 12 -68 5 -70 6 -38
15 43 11 92 10 99 -1 3 -5 17 -12 31 -16 14 -4 34 -11 45 -15 32 -13 85 -31
150 -52 l60 -19 -62 5 c-38 4 -63 2 -63 -4 0 -5 -13 -12 -30 -16 -16 -4 -32
-11 -35 -16 -4 -5 -27 -9 -53 -9 -73 0 -252 -23 -252 -33 0 -4 -5 -5 -10 -2
-6 3 -16 3 -22 -2 -7 -4 -24 -8 -38 -9 -85 -4 -176 -19 -185 -30 -5 -7 -26
-17 -45 -22 -19 -5 -34 -14 -32 -21 1 -8 -10 -9 -38 -5 -31 5 -41 3 -46 -10
-4 -10 -18 -16 -35 -16 -16 0 -29 -5 -29 -11 0 -7 14 -8 39 -4 42 7 66 -9 28
-19 -33 -9 -77 -7 -77 3 0 5 -9 7 -20 4 -11 -3 -20 -9 -20 -14 0 -5 -13 -6
-29 -3 -16 4 -32 1 -36 -5 -3 -6 -1 -10 6 -9 6 2 13 -2 16 -9 2 -7 -13 -14
-39 -19 -24 -4 -37 -9 -30 -11 6 -3 9 -9 6 -15 -4 -7 2 -8 17 -3 13 4 26 12
27 16 2 5 7 7 12 4 5 -3 37 2 72 11 71 18 171 33 178 27 11 -10 -28 -22 -55
-17 -19 3 -25 2 -17 -4 8 -6 -19 -16 -80 -30 -51 -12 -118 -30 -148 -42 -56
-20 -49 -20 79 4 96 18 79 6 -33 -25 -79 -21 -85 -25 -56 -29 l34 -5 -37 -14
c-20 -8 -37 -19 -37 -24 0 -5 -6 -7 -13 -4 -17 6 -75 -38 -64 -49 4 -4 17 2
30 14 13 12 30 22 38 22 9 -1 3 -10 -14 -25 l-28 -25 25 0 c14 0 28 5 31 10 9
15 75 41 86 34 16 -10 10 -37 -7 -30 -9 3 -39 -6 -67 -21 -62 -35 -41 -41 42
-14 33 12 74 21 91 21 17 0 38 4 48 9 18 10 207 34 257 32 17 0 55 6 85 14 68
17 142 26 135 15 -3 -4 -22 -11 -42 -14 -46 -8 -136 -38 -143 -48 -3 -3 -34
-9 -70 -13 -59 -6 -124 -21 -175 -41 -18 -7 -19 -6 -5 10 14 18 12 18 -28 11
-23 -4 -53 -8 -67 -10 -14 -1 -37 -15 -52 -30 l-28 -28 33 5 c17 2 32 3 32 2
0 -2 -9 -19 -21 -38 -19 -33 -16 -49 7 -26 5 5 20 7 32 3 22 -5 22 -6 6 -25
-10 -10 -23 -17 -30 -14 -7 3 -18 -2 -24 -10 -10 -11 -8 -14 11 -14 13 0 46 7
73 15 76 23 113 18 46 -6 -30 -11 -65 -22 -78 -25 -47 -9 -130 -54 -147 -80
l-17 -27 26 19 c14 11 26 22 26 27 0 14 20 7 20 -9 0 -14 2 -14 22 0 22 16 48
22 35 9 -4 -3 -2 -12 5 -20 6 -7 8 -16 4 -20 -3 -3 -6 -1 -6 5 0 22 -30 12
-40 -12 -5 -13 -32 -48 -59 -77 -28 -30 -51 -57 -51 -61 0 -9 -27 -21 -72 -32
-22 -5 -26 -3 -22 8 3 9 13 18 22 21 10 3 28 14 41 24 l25 19 -30 -5 c-16 -3
-38 -13 -49 -22 -18 -15 -19 -15 -7 0 10 13 9 19 -3 29 -13 11 -16 11 -13 0 2
-7 -3 -15 -11 -18 -8 -2 -11 0 -7 6 3 6 2 14 -4 17 -8 5 -7 11 1 21 10 12 14
12 20 2 5 -7 9 -8 9 -3 0 35 -42 49 -73 24 -14 -10 -29 -19 -34 -19 -4 0 -25
-11 -45 -25 -20 -14 -40 -25 -45 -25 -10 0 60 59 70 60 9 0 37 26 37 34 0 2
-30 -4 -67 -15 -83 -23 -106 -25 -77 -5 11 8 33 18 47 21 37 10 34 28 -3 20
-44 -10 -37 9 15 36 25 13 45 31 45 40 0 8 12 22 27 30 15 8 37 24 50 37 l24
24 -23 -7 c-14 -4 -8 3 15 16 37 23 52 47 20 34 -63 -26 -84 -12 -30 20 31 18
63 45 54 45 -3 0 -22 -7 -42 -16 -50 -20 -74 -51 -70 -88 2 -16 -2 -35 -10
-42 -19 -19 -30 -18 -14 2 10 13 10 17 0 24 -10 5 -10 9 -2 15 9 5 9 10 1 20
-9 10 -6 16 9 25 30 16 26 32 -4 18 -14 -6 -25 -15 -25 -19 0 -5 -7 -6 -15 -2
-14 5 -14 8 1 24 16 18 16 19 -2 19 -16 0 -14 4 11 25 21 17 25 24 14 25 -10
0 -31 -16 -48 -35 -34 -40 -45 -44 -36 -15 9 30 -13 25 -73 -14 -58 -39 -70
-35 -21 5 24 19 29 28 19 34 -9 5 -11 4 -6 -3 5 -8 -1 -12 -14 -12 -12 0 -35
-7 -52 -16 -22 -11 -29 -12 -26 -3 2 7 19 18 37 24 18 6 37 18 42 27 5 9 20
19 34 22 14 4 25 14 25 22 0 17 -26 16 -75 -2 -16 -6 -14 -1 8 19 15 15 35 27
43 27 7 0 14 3 14 8 0 12 -50 31 -66 25 -8 -3 -14 0 -14 6 0 6 17 11 39 11 53
0 101 11 101 23 0 5 -13 7 -30 4 -17 -4 -30 -2 -30 3 0 4 -6 10 -12 13 -7 2
-3 2 9 1 12 -2 25 1 28 7 4 5 17 9 28 8 76 -5 55 13 -24 22 -52 6 -69 4 -115
-17 -67 -29 -71 -18 -6 16 40 22 59 26 127 25 49 -1 90 3 105 11 24 13 24 14
-18 14 -30 0 -41 -4 -36 -11 11 -19 -83 0 -150 29 -44 20 -54 28 -40 32 10 3
30 11 44 17 14 6 34 14 45 18 16 5 17 8 5 15 -12 8 -11 10 7 10 12 0 25 5 29
12 5 8 -12 10 -67 5 -69 -5 -72 -5 -46 9 22 12 26 19 21 40 l-7 26 26 -26 c18
-18 33 -24 54 -22 15 2 34 4 41 5 17 1 15 21 -3 21 -8 0 -15 5 -15 11 0 7 -15
10 -40 7 -22 -2 -40 0 -40 4 0 5 20 8 45 8 25 0 45 -4 45 -10 0 -5 14 -8 30
-6 38 4 52 16 19 16 -13 0 -42 6 -63 14 -33 11 -36 15 -21 23 11 7 14 13 7 17
-6 4 -9 13 -6 20 3 9 -6 16 -28 20 l-33 8 53 14 c29 7 65 20 80 29 26 14 26
14 4 15 -14 0 -22 5 -19 13 3 11 11 13 60 16 10 1 15 6 12 11 -4 6 -25 10 -48
8 -25 -1 -42 3 -45 10 -2 7 -17 12 -33 12 -16 0 -29 4 -29 8 0 5 23 7 50 6 28
-1 50 2 50 6 0 4 23 6 50 4 28 -2 50 1 50 6 0 6 -28 10 -63 10 -57 0 -66 3
-92 30 l-29 30 55 1 c30 1 45 3 34 6 -11 3 -29 15 -40 28 -19 22 -104 47 -91
27 6 -10 -72 -37 -82 -28 -3 3 9 9 26 12 18 4 32 11 32 15 0 5 12 15 28 21
l27 11 -30 7 c-26 5 -27 7 -10 12 11 4 42 10 69 14 45 6 48 8 31 20 -15 11
-16 17 -7 26 9 9 20 8 47 -5 40 -19 66 -22 80 -8 6 5 20 11 32 13 27 4 17 26
-14 32 -29 6 -86 36 -80 43 3 2 17 -3 31 -12 21 -14 26 -15 26 -3 0 8 -6 20
-12 27 -7 8 7 -1 31 -18 69 -48 67 -37 -4 34 -36 36 -65 70 -65 76 0 11 5 8
59 -28 43 -29 50 -24 17 12 -32 35 -34 56 -3 27 13 -12 33 -22 45 -22 11 0 33
-5 47 -12 14 -6 28 -8 33 -3 4 4 1 10 -6 12 -10 4 -9 9 4 24 16 18 16 19 -17
20 -19 1 -26 3 -15 6 10 3 38 -1 62 -7 33 -10 47 -10 58 -1 8 7 24 14 37 16
12 3 26 10 29 16 4 6 18 9 31 8 13 -2 30 0 38 5 8 5 16 4 21 -3 5 -9 11 -7 21
5 13 16 10 17 -48 10 -35 -4 -78 -13 -97 -21 -23 -10 -51 -12 -87 -8 -44 6
-49 8 -29 14 14 4 44 7 67 8 23 1 44 5 48 10 7 12 -75 25 -110 19 -33 -7 -32
6 2 21 15 7 64 11 120 10 52 -1 97 1 100 5 4 3 -5 7 -18 7 -18 1 -17 3 9 8 35
6 41 27 7 24 -36 -4 -65 7 -65 23 0 12 -7 15 -30 12 -46 -7 -36 9 11 17 22 4
45 12 51 19 9 10 27 10 78 1 76 -13 94 -21 86 -41 -5 -12 6 -13 57 -9 107 10
117 12 124 18 3 4 16 7 29 7 37 0 123 32 141 53 18 19 17 19 -37 12 -53 -7
-100 -29 -100 -45 0 -5 -35 -8 -77 -8 -46 0 -70 4 -58 8 28 10 -30 18 -185 25
-119 6 -164 16 -127 31 9 3 27 6 39 6 48 0 319 -35 372 -48 22 -5 28 -4 24 7
-3 8 -20 17 -39 21 -19 4 -61 14 -94 22 -33 9 -83 16 -112 16 -28 0 -55 5 -58
10 -4 6 -10 8 -15 5 -4 -3 -11 2 -14 11 -5 14 -1 16 27 11 39 -6 89 2 82 13
-3 5 -20 6 -38 3 -23 -3 -37 0 -46 11 -13 15 -10 16 27 10 37 -6 40 -5 36 13
-5 17 1 21 39 26 58 8 119 -2 136 -22 10 -12 15 -13 18 -4 3 8 14 11 31 7 26
-6 26 -6 7 9 -20 16 -19 16 7 17 31 0 47 18 27 31 -8 4 -16 3 -20 -3 -5 -8
-20 -5 -51 7 -23 10 -65 26 -93 36 -43 16 -46 18 -20 18 17 1 50 -8 74 -19 48
-22 87 -28 61 -9 -12 8 -9 9 10 4 50 -14 100 -17 100 -6 0 6 -15 11 -34 11
-18 0 -39 7 -46 15 -11 14 -10 14 16 5 15 -6 40 -8 54 -4 l25 7 -32 13 c-39
17 -43 29 -7 20 17 -5 23 -3 19 4 -3 5 -16 10 -28 10 -12 1 -47 14 -77 31
l-55 30 40 -7 c22 -3 45 -9 50 -13 17 -13 75 -21 75 -11 0 6 -12 10 -27 10
-20 0 -24 3 -14 9 11 7 10 10 -4 18 -29 17 -1 23 30 7 23 -12 35 -13 55 -4 23
11 24 13 7 25 -15 11 -6 13 61 17 93 5 124 18 72 30 -19 4 -1679 7 -3687 8
l-3653 0 0 -1455z m8277 1244 c3 -10 13 -21 22 -24 53 -17 417 -382 399 -401
-3 -2 -22 15 -43 38 -67 77 -110 120 -142 145 -18 14 -59 51 -92 82 -83 79
-161 144 -190 159 -15 7 -18 10 -7 7 14 -4 17 -1 13 15 -4 17 -2 18 15 9 11
-6 23 -19 25 -30z m659 -1720 c2 -4 -34 -10 -81 -14 -47 -4 -88 -11 -91 -16
-3 -5 -20 -9 -37 -9 -18 0 -45 -7 -61 -15 -32 -17 -106 -17 -119 -1 -5 7 -7 4
-3 -7 8 -26 -23 -35 -40 -12 -11 15 -17 16 -26 7 -7 -7 -18 -12 -26 -12 -11 0
-11 3 2 15 8 8 22 15 31 15 9 0 28 6 43 14 40 20 96 29 200 31 51 2 96 5 99 8
8 8 103 5 109 -4z m47 -349 c15 0 27 -4 27 -10 0 -5 -12 -13 -27 -16 -16 -4
-30 -10 -33 -13 -11 -14 -82 -32 -161 -41 -46 -6 -127 -17 -179 -25 -203 -30
-604 -56 -585 -37 6 5 28 12 50 15 22 3 119 14 215 26 96 11 186 23 200 27 14
3 70 10 125 15 128 11 168 19 180 35 11 15 108 34 140 28 11 -2 32 -4 48 -4z
m1326 -131 c17 -6 36 -19 41 -28 11 -22 56 -246 64 -326 15 -135 18 -226 8
-254 -8 -22 -7 -31 1 -34 9 -3 9 -10 -1 -27 -8 -13 -10 -25 -5 -29 12 -8 8
-168 -6 -246 -6 -33 -15 -91 -22 -130 -12 -75 -28 -115 -73 -182 -32 -49 -43
-53 -48 -20 -2 12 -9 21 -16 19 -9 -2 -11 4 -7 18 4 11 2 20 -4 20 -6 0 -11 7
-11 16 0 8 5 12 11 9 5 -4 18 3 28 14 10 12 22 21 27 21 18 0 52 43 47 59 -10
26 -25 32 -66 25 -34 -5 -37 -4 -34 17 2 13 9 25 15 27 15 5 16 22 2 22 -19 0
-80 -63 -80 -82 0 -10 9 -36 19 -56 l19 -38 -28 -11 c-28 -11 -62 -2 -42 11 6
3 8 21 5 40 -3 18 0 43 6 54 10 20 9 20 -21 11 -56 -16 -96 -11 -103 11 -7 24
1 40 20 40 25 0 85 61 85 86 0 39 20 70 57 88 20 9 37 16 38 14 1 -2 8 -13 14
-25 6 -13 18 -23 27 -23 23 0 64 30 79 59 15 31 32 140 40 271 4 62 -13 241
-31 320 -8 36 -14 86 -14 113 0 32 -4 47 -13 47 -19 0 -80 -78 -112 -143 -17
-35 -32 -54 -38 -48 -5 5 -4 17 2 30 14 26 3 26 -27 2 -12 -11 -20 -26 -16
-34 9 -25 -27 -30 -50 -7 -20 20 -20 22 -3 31 12 7 16 17 12 30 -4 11 -2 25 3
32 11 14 21 77 12 77 -3 0 -11 -5 -18 -12 -6 -6 -14 -9 -17 -6 -10 10 69 100
104 118 42 22 75 25 120 9z m-3711 -188 c9 -5 37 -19 62 -31 45 -22 79 -55 80
-77 0 -15 -71 6 -86 26 -8 10 -13 11 -18 3 -4 -7 -2 -12 5 -12 8 0 8 -4 -1
-15 -8 -9 -30 -15 -57 -15 -37 0 -43 -3 -34 -13 10 -13 6 -27 -9 -27 -4 0 -12
12 -19 27 -9 19 -15 23 -23 15 -8 -8 -8 -21 1 -50 7 -21 11 -49 9 -63 -4 -23
-5 -23 -12 6 -4 17 -10 37 -14 45 -10 27 -11 94 0 115 18 34 61 75 80 75 10 0
26 -4 36 -9z m3646 -171 c25 -33 54 -84 65 -114 22 -60 51 -191 51 -234 0 -41
-20 -93 -45 -119 -22 -22 -22 -22 -39 -4 -19 21 -14 61 8 61 13 0 30 28 41 66
8 31 -31 204 -52 227 -22 23 -47 37 -79 43 -19 3 -24 0 -24 -16 0 -13 -7 -20
-20 -20 -17 0 -19 5 -13 33 3 17 11 43 18 57 7 14 15 37 19 53 3 15 11 27 16
27 6 0 30 -27 54 -60z m-1805 -703 c5 -13 15 -30 23 -38 7 -8 28 -43 47 -79
50 -96 111 -141 103 -77 -2 18 2 29 13 33 9 4 14 13 10 22 -4 12 -3 13 10 2 8
-7 15 -19 15 -26 0 -8 4 -14 10 -14 5 0 29 -18 51 -40 27 -26 48 -39 58 -35
10 3 26 -2 37 -11 18 -15 18 -15 -8 -9 -21 4 -28 2 -28 -10 0 -8 -6 -25 -12
-36 -11 -17 -10 -23 10 -39 28 -23 28 -26 -8 -39 -43 -14 -39 -34 5 -25 23 4
35 2 35 -5 0 -6 -7 -11 -15 -11 -9 0 -18 -7 -21 -15 -4 -8 -13 -15 -21 -15
-12 0 -13 -8 -8 -42 4 -24 14 -47 21 -51 8 -4 14 -13 14 -18 0 -6 16 -29 35
-51 41 -49 75 -115 68 -133 -3 -10 -17 -12 -46 -8 -70 9 -108 4 -144 -18 -18
-12 -40 -18 -48 -15 -8 3 -17 1 -20 -4 -3 -5 -16 -9 -28 -8 -12 1 -41 -2 -64
-6 -35 -6 -44 -5 -49 8 -7 19 -54 22 -54 4 0 -7 -5 -5 -11 5 -5 9 -21 17 -33
17 -26 0 -39 21 -30 45 4 9 0 15 -10 15 -9 0 -16 -5 -16 -12 0 -7 -11 3 -25
22 -31 42 -31 47 -2 45 34 -3 41 5 17 22 -12 8 -19 21 -16 29 3 8 -1 14 -9 14
-8 0 -12 -6 -9 -14 4 -10 -2 -16 -18 -18 -14 -2 -22 -9 -20 -18 2 -11 -1 -11
-11 3 -19 23 -24 22 -31 -8 -12 -47 -29 -28 -21 23 9 57 21 82 41 82 15 0 73
37 86 55 4 5 3 14 -2 19 -13 13 -13 53 0 61 7 4 7 12 0 25 -13 24 -13 83 -1
75 13 -7 24 12 15 26 -14 23 -13 81 1 96 17 17 20 33 5 33 -5 0 -10 9 -10 20
0 11 5 20 11 20 6 0 9 16 8 38 -5 71 18 112 62 112 22 0 32 -6 38 -23z m521
-862 c0 -8 5 -15 11 -15 7 0 17 -7 24 -17 7 -9 25 -16 44 -15 17 0 31 -3 31
-8 0 -4 13 -10 29 -12 21 -3 28 -1 24 9 -7 17 20 7 66 -24 21 -14 49 -23 72
-23 22 0 39 -4 39 -10 0 -5 -8 -10 -19 -10 -32 0 -43 -24 -20 -43 17 -15 20
-15 25 -2 11 27 26 3 19 -31 -6 -33 -5 -34 17 -23 17 7 32 7 53 -2 17 -7 33
-12 38 -11 4 1 7 -2 7 -8 0 -5 7 -10 15 -10 8 0 15 -7 15 -17 0 -15 -1 -15
-18 0 -23 21 -62 12 -62 -15 0 -12 -4 -17 -12 -12 -7 4 -8 3 -4 -5 4 -6 12 -9
17 -6 5 4 9 -1 9 -9 0 -9 5 -16 11 -16 7 0 8 11 4 30 -4 19 -3 30 4 30 14 0
24 -43 19 -79 -3 -21 1 -32 15 -41 17 -10 19 -10 14 4 -4 10 1 20 14 27 27 14
31 9 37 -51 2 -27 9 -50 14 -50 6 0 7 19 3 48 -5 36 -2 52 10 67 16 20 16 19
12 -7 -4 -27 7 -57 17 -47 3 3 8 22 10 42 6 42 13 57 27 57 6 0 7 -9 3 -22 -4
-13 -8 -32 -8 -44 -1 -12 -16 -38 -33 -59 -18 -21 -33 -44 -33 -52 0 -17 -27
-17 -33 0 -2 6 -2 0 0 -15 6 -36 -17 -98 -35 -98 -11 0 -12 3 -3 14 9 10 9 24
2 48 -7 24 -9 27 -10 11 -1 -30 -20 -39 -35 -17 -12 16 -14 14 -24 -17 -6 -19
-12 -45 -14 -58 -2 -14 -9 -26 -17 -29 -10 -3 -12 3 -9 29 3 19 1 43 -4 53 -6
10 -10 41 -10 67 0 36 -4 49 -15 49 -9 0 -13 -8 -12 -22 4 -32 -10 -55 -22
-37 -7 11 -9 11 -9 -1 0 -8 4 -22 10 -30 5 -9 5 -19 -2 -27 -14 -17 -29 -7
-21 14 4 11 3 14 -5 9 -14 -9 -15 3 -2 24 7 11 5 17 -6 20 -18 7 -28 96 -13
106 5 3 9 -7 9 -23 0 -29 15 -61 24 -52 6 5 -28 106 -39 117 -3 3 -5 -2 -5
-11 0 -30 -29 -17 -49 21 -6 12 -18 22 -27 22 -11 0 -12 4 -4 19 14 27 13 48
-3 54 -10 4 -12 -12 -11 -67 1 -39 -3 -87 -9 -106 -14 -44 -14 -43 -27 -35 -7
4 -4 15 10 32 20 26 27 63 11 63 -4 0 -6 11 -3 25 4 21 1 24 -14 19 -17 -5
-17 -4 -3 8 18 15 14 38 -6 38 -9 0 -12 -13 -9 -45 1 -25 -2 -47 -7 -50 -5 -4
-9 6 -9 20 0 17 -5 25 -12 22 -7 -2 -12 -12 -12 -21 1 -9 -2 -16 -7 -16 -5 0
-9 21 -10 48 0 42 -1 44 -10 22 -6 -14 -8 -37 -5 -52 3 -16 2 -28 -3 -28 -12
0 -18 18 -26 74 -4 25 -12 46 -17 46 -5 0 -6 -9 -3 -21 4 -12 7 -36 7 -55 0
-19 5 -40 12 -47 7 -7 15 -21 19 -31 8 -19 7 -19 -12 -2 -12 11 -26 34 -33 52
-15 42 -41 56 -32 17 4 -16 3 -24 -3 -20 -5 3 -8 -6 -5 -23 2 -17 1 -41 -2
-54 -6 -23 -10 -24 -53 -20 -26 2 -49 8 -52 12 -7 10 -121 47 -174 57 -28 6
-37 11 -33 22 3 8 6 19 6 24 0 5 6 8 13 7 7 -2 15 14 19 42 5 39 6 37 4 -17
-1 -35 1 -63 6 -63 4 0 8 18 8 40 0 22 5 40 10 40 13 0 13 37 0 42 -6 2 -6 13
0 33 10 30 10 30 6 2 -3 -29 8 -45 19 -27 10 16 25 1 25 -26 0 -15 6 -24 15
-24 10 0 15 10 15 29 0 17 5 33 10 36 6 3 10 17 10 29 0 13 7 29 15 36 9 7 14
24 13 39 -3 22 2 27 24 29 31 4 61 33 41 39 -7 3 -13 9 -13 15 0 6 6 5 15 -2
9 -7 18 -10 22 -7 3 4 0 13 -7 22 -11 13 -7 15 29 15 22 0 41 5 41 10 0 6 5
10 10 10 6 0 10 -7 10 -15z m94 -1045 c1 -18 7 -25 21 -25 14 0 22 -11 32 -44
16 -56 21 -135 8 -141 -5 -3 -10 10 -11 28 -2 37 -12 52 -22 35 -10 -16 -36
42 -28 62 8 22 24 18 29 -7 4 -16 5 -13 4 7 -2 25 -6 30 -27 30 -24 0 -25 -3
-27 -65 -1 -54 2 -69 20 -87 23 -26 22 -27 -20 -13 -17 6 -35 22 -42 36 -17
37 -34 19 -27 -28 4 -26 3 -37 -4 -33 -5 3 -10 15 -10 26 0 11 -4 18 -9 15 -5
-4 -12 0 -14 6 -3 7 -6 3 -6 -9 -1 -24 -17 -31 -23 -11 -6 18 -48 21 -48 3 0
-8 -4 -15 -10 -15 -16 0 -12 28 6 38 14 8 14 12 3 31 -8 11 -19 19 -24 17 -13
-5 -17 31 -5 39 5 3 11 1 15 -5 10 -17 33 -11 40 10 6 19 8 19 28 5 12 -8 28
-15 35 -15 16 0 43 -25 36 -33 -3 -3 3 -3 15 0 27 7 27 18 0 36 l-20 15 24 26
c13 14 30 26 36 26 7 0 10 8 8 18 -14 50 -17 74 -11 84 9 14 26 -25 28 -62z
m1701 -525 c51 -24 81 -44 69 -44 -11 -1 -29 -10 -39 -21 -17 -19 -17 -20 8
-29 14 -5 32 -24 41 -41 14 -29 14 -35 -2 -68 -27 -57 -136 -120 -115 -67 3 8
11 15 18 15 13 0 65 62 65 78 0 6 7 13 16 16 8 3 12 11 9 17 -4 6 -13 8 -20 5
-13 -5 -55 65 -55 92 0 7 -5 12 -10 12 -6 0 -22 12 -36 28 -14 15 -40 32 -57
39 -29 10 -30 11 -7 12 14 0 66 -20 115 -44z m214 -174 c11 -7 9 -10 -8 -16
-30 -9 -19 -18 31 -24 23 -3 43 -12 45 -18 4 -10 -13 -12 -66 -9 -75 4 -95 -4
-58 -22 22 -11 229 -46 342 -58 66 -7 109 -23 63 -24 -15 0 -29 -4 -32 -9 -6
-10 107 -22 258 -27 104 -3 111 -2 138 21 37 32 63 32 84 1 9 -14 22 -22 30
-19 17 6 29 -20 19 -44 -6 -17 -7 -17 -19 0 -19 25 -23 22 -30 -27 -8 -49 -18
-56 -77 -56 -38 0 -39 1 -39 35 0 19 -4 35 -10 35 -5 0 -10 -4 -10 -10 0 -5
-9 -10 -20 -10 -21 0 -27 -15 -10 -25 21 -13 9 -35 -30 -55 -51 -26 -64 -25
-87 5 -16 23 -22 25 -58 17 l-39 -8 52 -21 c29 -12 52 -28 52 -36 0 -23 -53
-64 -92 -71 -31 -6 -37 -4 -32 8 5 13 -7 15 -70 13 -87 -2 -82 -8 29 -32 112
-25 117 -28 113 -78 -3 -46 -3 -46 -88 -34 -43 6 -44 6 -10 -4 66 -20 72 -31
59 -105 -2 -11 -110 12 -136 29 -8 5 -13 3 -13 -5 0 -8 29 -21 72 -33 61 -17
73 -24 78 -45 8 -36 18 -12 15 37 -2 23 3 50 10 59 11 16 13 15 17 -9 3 -15 1
-27 -4 -27 -5 0 -7 -4 -4 -9 4 -5 0 -11 -6 -14 -7 -2 -10 -8 -6 -12 8 -8 77
62 78 79 0 14 81 111 98 118 35 14 102 8 120 -10 20 -20 65 -207 66 -277 1
-39 0 -40 -36 -43 -46 -4 -76 11 -80 39 -3 19 -9 22 -50 21 -76 -1 -78 -1 -78
-13 0 -28 -28 -39 -72 -30 -45 11 -64 6 -36 -10 9 -5 14 -17 11 -28 -3 -11 2
-21 11 -24 12 -5 14 -12 7 -31 -6 -13 -8 -26 -5 -29 3 -2 -12 -7 -33 -11 -28
-4 -41 -2 -49 9 -6 8 -19 15 -29 15 -9 0 -19 8 -22 19 -5 19 -42 41 -69 41
-28 0 -94 25 -94 36 0 6 -19 15 -42 20 -36 8 -43 13 -40 30 2 15 -4 23 -18 27
-11 3 -18 1 -14 -4 6 -10 -2 -11 -34 -3 -18 5 -20 9 -11 20 13 16 10 17 -48
14 -32 -1 -43 2 -43 13 0 9 -13 18 -30 22 -16 4 -30 11 -30 17 0 6 6 8 13 5 8
-3 20 -1 27 3 14 9 -26 29 -85 44 -16 4 -36 12 -42 18 -18 15 -17 87 1 94 22
8 7 36 -15 29 -20 -7 -25 5 -9 21 5 5 5 15 1 22 -6 10 -10 3 -15 -19 -4 -22
-2 -35 6 -40 10 -6 8 -12 -7 -23 -23 -18 -39 -21 -30 -5 10 15 -2 52 -25 79
-17 19 -19 32 -14 79 4 31 13 61 21 68 8 6 14 15 13 19 -1 5 3 10 9 12 6 2 11
-1 11 -7 0 -6 4 -11 9 -11 13 0 21 39 12 63 -7 20 -8 20 -25 -4 l-18 -24 7 25
c4 14 11 29 16 35 5 5 9 17 9 27 0 10 4 18 9 18 5 0 13 9 16 20 3 11 12 20 20
20 7 0 15 7 19 15 3 8 12 15 21 15 8 0 15 6 15 13 0 8 12 20 26 28 15 8 43 29
62 46 39 36 41 37 61 24z m-4329 -40 c0 -5 -15 -16 -32 -25 -32 -15 -30 -16
63 -10 52 2 106 0 120 -5 22 -9 22 -10 3 -10 -11 -1 -29 -10 -39 -21 -14 -15
-31 -20 -71 -20 -29 0 -80 -7 -113 -16 -43 -11 -66 -12 -80 -5 -13 8 -34 6
-72 -5 -30 -9 -88 -22 -129 -29 -41 -7 -85 -17 -98 -20 -17 -6 -21 -4 -17 7 5
13 62 35 185 73 25 8 97 32 160 54 132 47 120 43 120 32z m5430 -120 c36 -8
136 -57 145 -71 3 -4 -4 -10 -15 -13 -25 -6 -26 -24 -2 -32 16 -5 48 -53 40
-60 -16 -12 -75 -23 -105 -19 -34 5 -36 4 -20 -9 23 -19 23 -79 -2 -101 -12
-11 -21 -14 -26 -7 -3 7 -43 11 -96 11 -79 0 -89 2 -89 18 0 10 -4 22 -10 28
-5 5 -6 14 -2 20 8 12 127 44 169 45 l28 1 -33 12 c-18 6 -30 15 -26 19 4 3
-2 10 -12 14 -10 3 -22 11 -25 16 -9 12 -42 -6 -85 -49 -35 -33 -64 -44 -64
-24 0 6 -7 10 -15 10 -9 0 -18 6 -21 14 -6 16 48 99 79 121 26 18 88 20 105 3
9 -9 12 -9 12 0 0 7 12 12 26 12 19 0 25 5 22 17 -2 10 -12 19 -23 21 -11 2
-24 9 -30 14 -7 7 -2 8 15 4 14 -4 41 -11 60 -15z m-6065 -298 c-8 -8 -15 -20
-15 -27 0 -6 -16 -42 -36 -79 l-35 -67 -50 0 -49 0 0 45 c0 44 -15 60 -26 30
-4 -8 -12 -15 -18 -15 -8 0 -11 -12 -8 -33 4 -32 1 -35 -40 -50 -54 -21 -72
-21 -88 -2 -27 32 -42 4 -19 -34 10 -14 7 -24 -11 -49 -30 -40 -44 -44 -108
-32 -47 9 -58 7 -110 -16 -64 -30 -68 -32 -60 -40 3 -3 49 3 101 12 117 21
128 18 120 -33 -3 -21 -9 -42 -13 -46 -6 -7 -178 -47 -201 -47 -17 0 -39 33
-39 61 0 16 -4 29 -10 29 -5 0 -10 -4 -10 -10 0 -5 -5 -10 -12 -10 -29 0 -155
-89 -230 -162 -112 -109 -148 -121 -148 -52 0 77 109 188 326 330 115 76 333
184 369 184 6 0 19 18 28 40 15 38 17 40 59 40 24 0 48 -4 54 -9 10 -10 82 12
146 45 48 24 158 22 133 -3z m187 -76 c20 -31 6 -48 -90 -112 l-73 -49 -34 19
c-20 10 -35 26 -35 36 0 17 106 100 152 119 27 11 69 4 80 -13z m5864 2 c60
-15 96 -61 97 -123 1 -48 -24 -96 -49 -96 -11 0 -14 -5 -10 -16 3 -9 9 -33 12
-55 4 -21 9 -39 13 -39 3 0 26 35 50 78 87 150 99 159 181 126 63 -26 70 -48
70 -234 0 -155 -1 -160 -20 -160 -49 0 -90 36 -90 79 0 12 -16 25 -49 39 l-50
20 -16 -24 c-15 -23 -17 -24 -45 -9 -17 9 -30 19 -30 23 0 9 -91 38 -105 33
-5 -1 -7 1 -3 5 4 4 3 13 -2 19 -6 7 -24 48 -39 91 l-29 79 -6 -50 c-13 -99
-18 -108 -61 -117 -65 -14 -68 -4 -47 154 19 137 28 163 67 178 29 13 110 12
161 -1z m-5338 -114 c61 -64 112 -122 112 -131 0 -15 -71 -53 -100 -54 -9 0
-23 9 -33 20 -20 24 -21 24 -77 -3 -34 -17 -45 -28 -46 -47 -1 -14 -2 -30 -3
-37 -1 -13 -89 -49 -108 -45 -7 2 -13 -1 -13 -6 0 -9 -89 -52 -107 -52 -5 0
-37 21 -72 46 -34 25 -65 43 -67 41 -3 -3 4 -22 15 -43 33 -61 28 -91 -16
-109 -65 -27 -73 -21 -127 100 -55 125 -67 183 -41 205 21 17 177 87 214 95
33 7 68 -5 99 -34 27 -26 30 -85 5 -120 -16 -23 -15 -25 6 -43 13 -10 29 -18
36 -18 7 0 18 -7 25 -15 27 -32 30 -12 24 133 -5 106 -4 154 5 170 16 29 78
61 121 62 32 0 46 -11 148 -115z m-722 -305 c122 -124 131 -144 74 -172 -45
-22 -69 -22 -92 -1 -16 14 -24 15 -61 4 -55 -17 -68 -28 -61 -56 4 -17 -2 -28
-24 -44 -35 -24 -87 -37 -95 -24 -22 35 -28 308 -9 345 18 33 67 57 118 57 39
1 46 -4 150 -109z m-391 -16 c14 -15 25 -30 25 -34 0 -13 -35 -37 -92 -63 -32
-14 -58 -31 -58 -36 0 -17 15 -13 76 17 l56 27 19 -24 c33 -40 21 -63 -48 -95
-35 -16 -63 -35 -63 -42 0 -26 34 -24 86 6 65 37 79 37 100 5 14 -21 15 -31 6
-50 -7 -14 -17 -25 -23 -25 -6 0 -50 -19 -99 -41 -123 -57 -124 -57 -199 92
-34 67 -61 129 -61 139 0 19 36 70 50 70 4 0 41 15 82 34 118 55 112 54 143
20z m-321 -146 c24 -34 19 -54 -14 -67 -16 -6 -43 -16 -60 -22 -16 -6 -30 -18
-30 -25 0 -8 1 -14 3 -14 1 -1 42 -7 92 -15 64 -10 93 -19 102 -32 55 -75 1
-150 -150 -209 -67 -26 -103 -19 -113 23 -8 30 -4 34 64 58 78 28 76 48 -6 57
-77 8 -94 13 -126 39 -37 29 -36 86 2 124 32 33 168 104 199 105 12 0 29 -10
37 -22z m6050 -597 c7 -47 25 -55 91 -45 25 3 45 4 45 0 0 -3 -23 -17 -50 -31
-33 -17 -48 -30 -44 -38 4 -7 16 -24 26 -39 10 -14 18 -34 18 -43 0 -13 -8
-10 -35 14 -44 39 -57 39 -97 0 -38 -35 -46 -26 -24 26 9 21 16 41 16 44 0 4
-25 15 -55 25 -74 23 -72 40 4 31 67 -8 74 -3 74 56 0 52 22 51 31 0z m-783
-28 c10 -52 17 -56 75 -49 65 7 70 -5 14 -34 -22 -11 -40 -23 -40 -26 0 -3 11
-22 25 -42 32 -47 17 -64 -26 -28 -35 29 -62 28 -91 -5 -16 -19 -48 -26 -48
-11 1 4 7 18 15 32 25 44 19 55 -35 69 -65 17 -60 36 9 37 59 1 71 11 71 62 0
42 22 38 31 -5z m49 -448 c203 -69 461 -73 640 -10 48 17 52 7 8 -20 -18 -10
-91 -62 -163 -116 -71 -53 -213 -151 -315 -219 -221 -146 -295 -197 -375 -255
-96 -70 -106 -62 -45 42 110 186 117 264 34 362 l-36 42 48 62 c86 110 109
137 120 137 6 0 43 -11 84 -25z m734 -41 c12 -31 6 -55 -21 -80 -15 -14 -33
-22 -43 -19 -9 3 -29 -4 -43 -16 -25 -19 -27 -27 -27 -90 0 -71 5 -78 41 -59
13 7 19 21 19 45 0 28 6 39 38 60 l37 25 3 -47 c2 -26 1 -56 -2 -68 -6 -25
-172 -149 -191 -141 -14 5 -33 236 -20 256 4 6 41 38 83 70 43 33 82 64 87 69
15 15 32 13 39 -5z m-334 -263 c0 -30 -30 -61 -58 -61 -28 0 -73 -41 -70 -64
4 -30 30 -26 46 7 22 45 42 35 42 -22 0 -51 -24 -90 -36 -58 -5 13 -9 14 -25
4 -23 -14 -26 -67 -4 -67 9 0 15 -9 15 -23 0 -18 -17 -35 -68 -70 -37 -26 -71
-47 -75 -47 -13 0 -7 47 8 60 11 9 15 34 15 95 0 74 -2 83 -20 88 -25 6 -26
22 -2 42 42 35 208 145 220 145 7 0 12 -13 12 -29z m440 -128 c0 -82 -7 -231
-15 -333 -8 -102 -17 -223 -20 -270 -10 -144 -11 -148 -55 -170 -57 -29 -70
-26 -70 14 0 18 6 123 14 232 8 110 18 289 22 399 l7 200 51 37 c28 20 54 37
59 37 4 1 7 -65 7 -146z m-4110 -33 c0 -5 -19 -19 -42 -31 -24 -12 -45 -24
-48 -28 -3 -3 -23 -12 -45 -20 -48 -16 -292 -134 -355 -171 -25 -14 -88 -49
-140 -77 -52 -28 -122 -68 -155 -88 -214 -129 -346 -146 -415 -52 -39 53 -47
111 -26 195 17 70 71 172 95 180 11 4 12 -1 6 -19 -29 -94 -18 -148 42 -194
74 -56 101 -51 423 76 359 143 611 236 643 238 9 0 17 -3 17 -9z m3850 -202
c0 -181 -15 -537 -25 -584 -3 -15 -21 -27 -62 -42 -31 -12 -58 -20 -60 -18 -2
1 1 79 7 172 5 93 10 262 10 376 l0 207 58 39 c31 22 60 40 65 41 4 1 7 -86 7
-191z m399 105 c32 -80 39 -203 16 -299 -15 -67 -72 -194 -86 -194 -11 0 -13
-21 16 235 14 121 25 235 25 253 0 39 14 42 29 5z m-663 -387 c-4 -143 -9
-289 -12 -322 l-5 -61 -57 17 -57 18 -3 271 -2 270 62 40 c34 22 66 37 71 34
5 -3 6 -122 3 -267z m3594 -77 c0 -74 -10 -89 -73 -104 -15 -4 -31 -12 -35
-19 -4 -6 -9 -134 -12 -285 l-5 -274 -72 -26 c-55 -19 -75 -23 -84 -14 -8 8
-9 77 -2 265 5 139 6 257 2 261 -3 5 -24 1 -45 -8 -54 -22 -64 -15 -64 47 0
94 -6 88 188 165 98 39 183 68 190 65 8 -3 12 -27 12 -73z m-411 -191 c1 -54
-1 -58 -44 -99 -40 -38 -45 -48 -45 -86 0 -24 3 -43 8 -43 4 0 22 14 41 30 18
16 37 28 41 25 11 -7 23 -119 16 -143 -4 -11 -31 -36 -61 -56 -31 -21 -55 -44
-55 -54 0 -9 -3 -34 -6 -54 -8 -48 3 -49 62 -6 58 41 68 31 47 -51 -15 -60
-19 -65 -72 -99 -65 -41 -192 -93 -204 -83 -4 4 0 27 8 52 26 73 47 243 54
443 l6 190 95 69 c108 78 107 78 109 -35z m-236 -179 c-4 -156 -22 -312 -49
-428 -33 -140 -43 -155 -106 -179 -29 -11 -56 -18 -60 -15 -5 2 -8 49 -8 103
0 93 -12 138 -23 87 -2 -12 -12 -58 -22 -102 -9 -43 -23 -92 -31 -108 -14 -27
-59 -56 -69 -45 -8 8 57 603 70 649 3 8 26 25 51 37 56 28 69 20 78 -46 17
-116 29 -172 37 -172 5 0 10 62 11 137 l3 136 50 28 c28 16 55 27 60 25 6 -2
9 -44 8 -107z m-10619 77 c38 -22 73 -60 103 -111 18 -29 16 -101 -3 -138 -19
-36 -81 -116 -128 -163 -42 -42 -71 -56 -121 -56 -55 -1 -105 29 -144 89 -34
51 -40 97 -17 142 35 67 117 179 159 219 55 50 90 54 151 18z m359 -260 c28
-13 73 -32 99 -41 61 -22 74 -37 52 -59 -19 -20 -72 -13 -122 15 -49 28 -77
24 -100 -12 -11 -17 -17 -40 -14 -51 6 -24 58 -58 90 -58 23 0 26 -7 16 -34
-6 -17 -53 -22 -70 -8 -16 15 -88 33 -113 29 -28 -4 -61 -41 -61 -68 0 -29 43
-68 96 -87 48 -17 48 -17 17 -20 -42 -4 -191 48 -201 70 -2 4 -9 5 -16 2 -7
-3 -18 2 -25 10 -14 16 0 54 25 69 8 4 14 12 14 18 0 8 37 63 67 99 7 8 33 42
59 75 26 33 54 66 63 73 20 16 55 10 124 -22z m429 -156 c76 -34 98 -63 98
-127 0 -50 -14 -65 -49 -52 -40 16 -61 39 -61 69 0 42 -73 68 -100 35 -17 -21
-4 -67 37 -127 49 -71 54 -95 31 -143 -11 -22 -30 -48 -42 -57 -34 -28 -101
-23 -174 13 -114 57 -146 107 -103 160 17 21 22 22 38 11 10 -7 26 -15 37 -19
14 -5 17 -13 13 -39 -3 -19 -2 -34 3 -34 5 0 11 -9 15 -19 3 -11 12 -22 20
-25 25 -9 76 15 86 42 9 23 4 61 -10 72 -25 20 -81 121 -81 145 0 22 49 89 75
102 35 18 120 15 167 -7z"/>
<path d="M10544 2465 c-17 -7 -44 -29 -59 -49 -83 -108 1 -256 146 -256 80 0
149 69 149 149 0 44 -37 118 -72 142 -35 25 -122 33 -164 14z m87 -51 c29 -30
34 -42 36 -89 0 -30 4 -59 8 -66 4 -6 1 -15 -6 -20 -20 -13 -29 -11 -29 6 0 9
-9 15 -24 15 -69 0 -136 128 -90 174 27 27 67 19 105 -20z"/>
<path d="M3152 1069 c-47 -44 -132 -168 -132 -191 0 -15 41 -48 57 -48 10 1
155 183 167 210 12 26 -8 70 -31 70 -10 0 -37 -19 -61 -41z"/>
<path d="M7409 9933 c-1 -5 -1 -11 0 -15 0 -5 -5 -8 -12 -8 -16 0 -103 -45
-170 -86 -41 -26 -46 -32 -33 -43 8 -7 24 -10 36 -6 11 3 20 2 20 -4 0 -16
-42 -25 -50 -10 -18 28 -77 12 -106 -30 -9 -12 -21 -21 -28 -21 -7 0 -25 -13
-41 -30 -16 -16 -35 -30 -42 -30 -7 0 -35 -21 -61 -47 -28 -27 -56 -47 -65
-45 -10 2 -17 -1 -17 -7 0 -13 38 -8 69 9 12 6 21 15 21 20 0 5 14 17 30 25
17 9 40 24 51 33 11 9 23 17 27 18 4 0 20 6 35 12 16 7 34 12 41 12 7 0 21 7
32 15 18 14 18 14 -6 15 -23 1 -22 2 10 16 19 8 43 13 53 10 18 -4 86 32 87
47 0 4 -8 7 -17 8 -23 0 143 89 166 89 4 0 16 9 26 20 10 11 30 20 44 21 24 0
24 1 6 9 -25 11 -105 13 -106 3z"/>
<path d="M6836 9893 c-34 -26 -43 -39 -34 -45 10 -6 9 -8 -4 -8 -9 0 -18 -3
-21 -7 -2 -5 -2 -2 -1 5 2 6 -1 12 -6 12 -6 0 -10 -6 -10 -14 0 -7 -15 -20
-32 -27 -33 -14 -64 -39 -165 -136 -47 -46 -60 -73 -34 -73 4 0 32 22 62 50
57 52 64 56 74 40 3 -5 -1 -10 -9 -10 -16 0 -22 -15 -8 -23 4 -2 2 -3 -5 -1
-6 1 -26 -12 -45 -30 -18 -18 -46 -41 -61 -50 -14 -10 -33 -32 -42 -49 -18
-36 -18 -37 -5 -37 6 0 10 7 10 15 0 9 9 15 25 15 14 0 25 4 25 9 0 5 9 11 20
14 29 8 25 -4 -13 -34 -18 -15 -56 -53 -84 -85 l-51 -59 64 30 c35 16 64 36
64 43 0 12 40 34 49 26 2 -2 -15 -24 -38 -50 -23 -26 -39 -49 -37 -52 9 -8 26
9 26 26 0 14 2 14 9 3 7 -11 15 -7 39 15 43 41 71 64 78 64 13 0 84 93 84 110
0 7 9 23 20 37 25 32 19 41 -14 19 -18 -11 -27 -13 -32 -4 -5 8 -11 6 -20 -6
-6 -9 -15 -13 -18 -8 -3 5 3 17 14 27 11 10 20 22 20 27 0 5 11 26 25 48 14
22 23 40 20 40 -8 0 13 26 53 66 38 39 39 44 10 37 -19 -4 -18 -2 7 14 34 23
62 53 48 53 -5 0 -31 -16 -57 -37z"/>
<path d="M6988 9764 c-32 -30 -65 -69 -75 -85 -22 -36 -36 -38 -27 -3 9 37 -6
28 -53 -28 -47 -59 -100 -155 -89 -165 7 -7 29 14 96 95 17 20 28 26 33 19 4
-7 5 0 1 16 -4 16 -2 27 5 27 15 0 104 62 121 85 8 11 29 34 47 51 30 30 33
44 9 44 -6 0 -37 -25 -68 -56z"/>
<path d="M1952 7214 c-6 -11 -27 -18 -61 -22 -42 -4 -51 -2 -51 12 0 12 -10
16 -40 16 -22 0 -40 -4 -40 -10 0 -5 -6 -10 -13 -10 -23 0 -67 -25 -67 -37 0
-7 -7 -13 -15 -13 -8 0 -14 6 -12 13 3 19 -61 21 -89 2 -18 -11 -45 -16 -92
-15 -37 1 -101 -4 -142 -10 -41 -6 -111 -14 -155 -16 -44 -3 -90 -10 -102 -16
-19 -9 -25 -7 -46 18 -25 28 -25 29 -46 10 -12 -11 -21 -14 -21 -8 0 17 -148
16 -163 0 -7 -7 -18 -26 -25 -42 -12 -27 -14 -27 -31 -12 -20 18 -77 21 -118
5 -17 -7 -89 -10 -178 -10 -120 2 -154 -1 -170 -13 -14 -11 -45 -15 -102 -16
-49 0 -83 -4 -83 -10 0 -5 -20 -10 -45 -10 l-45 0 0 -238 0 -237 33 -17 c44
-22 136 -38 221 -38 46 0 79 -5 92 -14 13 -10 56 -16 125 -19 57 -2 190 -8
294 -13 105 -5 244 -7 310 -5 300 8 491 1 692 -25 102 -13 133 -14 175 -3 39
9 53 9 56 0 5 -14 72 -15 72 -1 0 13 43 30 89 36 19 2 64 21 100 41 36 21 76
36 88 34 13 -1 27 7 37 21 9 12 16 17 16 10 0 -10 4 -9 20 0 15 10 25 10 38 2
14 -9 21 -6 39 15 l22 25 21 -22 c11 -12 31 -21 43 -21 17 1 18 2 5 6 -22 6
-22 4 4 50 26 45 40 56 50 40 11 -18 16 -6 19 47 3 33 0 51 -8 53 -8 3 -13 -5
-13 -22 l0 -26 -40 22 c-29 17 -40 29 -41 48 -1 22 -3 20 -12 -11 -14 -51 -42
-52 -52 -1 -5 26 -9 33 -15 23 -7 -12 -12 -11 -28 3 -11 10 -35 17 -59 17 -37
0 -41 3 -56 40 -14 36 -19 40 -51 40 -35 0 -36 1 -36 40 0 41 -14 63 -64 95
-14 10 -26 25 -26 34 0 10 -18 35 -40 57 -22 21 -40 44 -40 49 0 6 -9 16 -20
23 -11 6 -17 18 -14 26 3 8 1 17 -5 21 -6 3 -14 -1 -17 -9 -8 -20 -24 -21 -24
-1 0 20 -37 19 -48 -1z"/>
<path d="M6756 6093 c-4 -9 -2 -21 4 -27 7 -7 10 -6 10 2 0 7 7 12 15 12 13 0
15 -20 15 -120 0 -118 0 -120 -22 -121 l-23 0 23 -11 c15 -8 22 -20 22 -40 0
-15 5 -28 10 -28 6 0 10 -20 10 -44 0 -35 5 -48 22 -61 20 -13 21 -18 10 -35
-11 -17 -10 -20 8 -20 11 0 20 -5 20 -11 0 -6 12 -25 26 -42 25 -30 25 -31 6
-38 -11 -4 -23 -12 -27 -18 -8 -14 -2 -14 30 1 22 10 28 9 36 -3 5 -8 9 -9 9
-3 0 9 11 9 38 3 52 -12 57 -11 83 11 l24 21 -32 -6 c-29 -6 -33 -4 -33 15 0
11 7 23 15 27 22 8 33 -6 15 -17 -12 -8 -11 -10 5 -11 11 -1 31 -3 44 -4 17
-2 38 10 69 40 43 41 43 42 16 37 -16 -3 -35 -13 -44 -23 -22 -26 -55 -32 -70
-14 -11 13 -10 22 3 51 11 22 22 32 29 28 8 -5 9 -2 5 10 -4 10 -7 37 -7 61 0
37 -3 44 -22 48 -23 4 -23 4 1 6 16 1 21 5 17 17 -3 8 -2 13 3 9 16 -9 41 6
41 25 0 13 -11 19 -45 24 -53 8 -66 22 -27 29 15 3 30 0 34 -6 4 -7 11 -7 22
2 9 7 25 11 36 8 12 -3 20 0 20 8 0 7 7 15 15 19 8 3 15 16 15 29 0 13 5 28
12 35 9 9 8 12 -4 12 -22 0 -39 -24 -32 -46 4 -14 3 -15 -4 -5 -7 9 -12 10
-16 2 -9 -14 -46 -14 -46 -1 0 14 46 60 60 60 7 0 5 6 -4 15 -8 8 -28 15 -45
15 -21 0 -31 5 -31 15 0 11 -11 15 -40 15 -36 0 -40 -2 -40 -25 0 -22 -4 -25
-40 -25 -36 0 -40 3 -40 25 0 23 -4 25 -40 25 -22 0 -40 -5 -40 -11 0 -5 -4
-7 -10 -4 -5 3 -10 14 -10 23 0 11 -16 24 -40 35 -50 21 -56 21 -64 0z"/>
<path d="M10360 5720 c0 -5 21 -19 48 -31 26 -11 73 -34 105 -50 32 -16 68
-29 78 -29 11 0 17 -4 14 -10 -4 -6 5 -10 20 -10 14 0 28 -7 31 -15 4 -8 11
-15 16 -15 6 0 8 7 5 15 -4 8 -2 17 4 21 6 3 13 -3 16 -15 6 -23 19 -28 25 -9
3 8 12 4 25 -9 22 -22 35 -21 27 2 -10 26 13 24 25 -3 l13 -27 13 25 c12 22
14 23 20 8 10 -26 25 -22 25 7 0 14 5 25 11 25 5 0 7 -5 3 -12 -4 -6 0 -16 8
-22 8 -6 15 -15 16 -21 0 -5 6 -11 13 -14 8 -2 10 4 5 23 -8 32 9 35 18 4 6
-23 6 -23 22 -3 14 19 16 19 25 2 7 -11 17 -16 29 -12 12 4 22 0 28 -11 8 -15
10 -15 16 1 3 9 4 21 0 26 -3 5 -1 9 4 9 6 0 15 -14 21 -31 11 -33 33 -32 24
1 -9 33 13 22 23 -12 10 -33 34 -51 34 -24 0 9 -5 16 -10 16 -6 0 -5 8 2 19
11 19 13 18 28 -12 14 -30 15 -31 18 -9 3 16 8 22 18 18 8 -3 17 1 21 10 8 21
-4 29 -21 15 -16 -13 -40 -6 -31 9 3 4 -17 11 -43 15 -26 4 -52 11 -59 17 -7
5 -16 7 -21 4 -5 -3 -46 4 -93 15 -46 12 -104 21 -129 22 -25 1 -47 4 -50 7
-5 6 -41 16 -205 56 -101 24 -235 32 -235 14z"/>
<path d="M7 710 c3 -25 5 -58 4 -75 -1 -16 -4 -166 -7 -333 l-5 -302 140 0
c132 0 140 1 146 20 10 33 -4 100 -35 165 -16 33 -46 98 -66 145 -21 47 -47
98 -58 115 -20 29 -67 151 -88 230 -6 22 -14 42 -18 45 -4 3 -10 12 -14 20 -3
8 -3 -5 1 -30z"/>
</g>
</svg>
